<svg width="27" height="27" viewBox="0 0 27 27" fill="none" xmlns="http://www.w3.org/2000/svg">
<rect width="27" height="27" rx="8" fill="#11295A"/>
<path d="M8.5609 9.12815C8.78787 8.88521 9.10491 8.56246 9.43063 8.23636C10.2064 7.45965 11.4648 7.47571 12.2353 8.25763L12.3597 8.38386C12.9401 8.97282 12.8608 9.87483 12.4524 10.5938C11.9651 11.4514 12.2912 12.1504 13.5733 13.4325C14.8582 14.7174 15.5425 15.0272 16.397 14.5295C17.1092 14.1147 18.0082 14.041 18.5952 14.6195L18.7421 14.7643C19.5245 15.5354 19.5398 16.7946 18.7626 17.5709C18.4377 17.8953 18.1161 18.2116 17.8728 18.44C15.5023 20.6654 6.34101 11.5042 8.5609 9.12815Z" stroke="#EEF8FF"/>
</svg>
