<svg width="70" height="70" viewBox="0 0 70 70" fill="none" xmlns="http://www.w3.org/2000/svg">
<path fill-rule="evenodd" clip-rule="evenodd" d="M2.18639 15.9838L2.52203 15.6483C2.92932 15.241 3.53334 15.2101 3.98273 15.5738L4.30553 15.835L4.38633 20.6666C4.47232 25.8028 4.55231 26.5499 5.27363 28.9489C7.23527 35.4736 12.4549 40.7576 18.9484 42.7917C21.2636 43.5169 22.2607 43.6374 26.5565 43.7105L30.6239 43.7797L30.624 43.7502L30.6239 45.9672L26.5565 45.9006C22.389 45.8324 21.6979 45.763 19.365 45.1777C12.0106 43.3325 5.79098 37.5129 3.37365 30.215C2.40076 27.2775 2.18898 25.4646 2.18748 20.0575L2.18639 15.9838Z" fill="#11295A"/>
<path fill-rule="evenodd" clip-rule="evenodd" d="M30.6239 45.9672V48.8982C30.6239 51.8277 30.624 51.8292 30.9595 52.1646L31.295 52.5002H34.9989H38.7027L39.0382 52.1646C39.3739 51.829 39.3739 51.8286 39.3739 48.8833V45.9377V43.7797V43.0069C39.3739 42.3684 39.3155 42.1755 39.0382 41.8983L38.7027 41.5627H34.9989H31.295L30.9595 41.8983C30.6823 42.1755 30.6239 42.3684 30.6239 43.0069L30.624 43.7502L30.6239 45.9672ZM37.1864 50.3127V47.0314V43.7502H34.9989H32.8114V47.0314V50.3127H34.9989H37.1864Z" fill="#0C5AE9"/>
<path fill-rule="evenodd" clip-rule="evenodd" d="M39.3739 45.9377V43.7797L43.4413 43.7105C47.908 43.6344 48.8953 43.5046 51.4071 42.6631C57.671 40.5645 62.7006 35.4479 64.6654 29.1757C65.3907 26.8605 65.5111 25.8634 65.5843 21.5676L65.6534 17.5002H39.7243H13.795L13.4595 17.1645C13.0155 16.7206 13.0155 16.0923 13.4595 15.6483L13.795 15.3127H40.4676H67.1402L67.4898 15.6623L67.8396 16.012L67.7709 20.8918C67.7214 24.4053 67.6454 26.061 67.4994 26.8049C66.6504 31.1286 65.0523 34.5538 62.3999 37.7346C59.7398 40.9245 56.0409 43.4413 52.0887 44.7504C49.2599 45.6874 47.2976 45.935 42.6893 45.9366L39.3739 45.9377ZM9.08453 15.6483C8.87289 15.8598 8.74889 16.1401 8.74889 16.4064C8.74889 16.6728 8.87289 16.953 9.08453 17.1645C9.29604 17.3762 9.57631 17.5002 9.84264 17.5002C10.109 17.5002 10.3892 17.3762 10.6007 17.1645C10.8124 16.953 10.9364 16.6728 10.9364 16.4064C10.9364 16.1401 10.8124 15.8598 10.6007 15.6483C10.3892 15.4367 10.109 15.3127 9.84264 15.3127C9.57631 15.3127 9.29604 15.4367 9.08453 15.6483ZM2.51861 35.3391L2.17969 35.678L2.21715 48.5667L2.25475 61.4553L2.68746 62.3686C3.28957 63.6396 4.06463 64.4312 5.30904 65.0462L6.34209 65.5568H34.9989H63.6557L64.6887 65.0462C65.9332 64.4312 66.7082 63.6396 67.3103 62.3686L67.743 61.4553L67.7806 48.5667L67.8181 35.678L67.4792 35.3391C67.0318 34.8918 66.4048 34.8904 65.9595 35.3358L65.6239 35.6713V48.1374C65.6239 57.5252 65.5829 60.7421 65.4576 61.166C65.2358 61.917 64.1032 63.0496 63.3522 63.2714C62.5341 63.5132 7.46373 63.5132 6.64561 63.2714C5.89461 63.0496 4.76203 61.917 4.54014 61.166C4.4149 60.7421 4.37389 57.5252 4.37389 48.1374V35.6713L4.03824 35.3358C3.59295 34.8904 2.96596 34.8918 2.51861 35.3391Z" fill="#11295A"/>
<path d="M27.9579 4.53419C27.5819 4.60487 26.7788 4.90156 26.1731 5.19345C23.6544 6.40765 21.8739 9.19575 21.8739 11.926C21.8739 12.9659 23.0028 13.5127 23.7033 12.8121C23.9438 12.5716 24.0368 12.2812 24.104 11.5609C24.2848 9.62642 25.403 8.02189 27.184 7.14169L28.2171 6.63105H34.9989H41.7807L42.8137 7.14169C44.5948 8.02189 45.713 9.62642 45.8937 11.5609C45.961 12.2812 46.054 12.5716 46.2945 12.8121C46.995 13.5127 48.1239 12.9659 48.1239 11.926C48.1239 10.096 47.2482 8.05032 45.8682 6.65661C44.831 5.60935 43.2679 4.76552 41.9122 4.52134C40.9032 4.3395 28.9347 4.35071 27.9579 4.53419Z" fill="#0C5AE9"/>
</svg>
