<svg width="70" height="70" viewBox="0 0 70 70" fill="none" xmlns="http://www.w3.org/2000/svg">
<path fill-rule="evenodd" clip-rule="evenodd" d="M33.3747 2.40359C29.9185 3.333 27.7636 6.92583 28.6415 10.2958C28.9445 11.459 29.4723 12.3999 30.3216 13.2902C31.1061 14.1127 32.5296 14.9479 33.4373 15.1182L33.9063 15.2062V16.9689V18.7318L32.5049 18.6558C31.1153 18.5804 28.8118 18.402 27.0361 18.2322C26.5285 18.1837 26.1133 18.1001 26.1133 18.0467C26.1133 17.94 27.2348 16.4136 28.0063 15.4701C28.6031 14.7403 28.6675 14.0519 28.1762 13.6542C27.6541 13.2313 27.062 13.3221 26.4993 13.9111C26.0411 14.3908 24.4008 16.5753 23.8927 17.3828L23.6652 17.7441L22.6676 17.5538C21.3876 17.3098 21.4072 17.3084 20.9858 17.6708C20.2017 18.3453 20.6783 19.4571 21.8253 19.6291C22.1534 19.6783 22.4219 19.7651 22.4219 19.8221C22.4219 19.8791 22.1184 20.5642 21.7475 21.3446C20.157 24.6911 19.1007 28.7523 18.7916 32.7099L18.6981 33.9062H16.9522H15.2063L15.1182 33.4372C14.8175 31.8335 13.2096 29.8764 11.5585 29.1037C10.5256 28.6204 10.5451 28.8151 11.3084 26.6055C13.4097 20.5231 18.1174 15.2679 24.0309 12.4037C26.1453 11.3797 26.4999 10.919 25.8299 10.0672C25.3732 9.48671 24.7925 9.57722 22.8588 10.5307C15.9313 13.9463 10.5544 20.4822 8.62533 27.832C8.48136 28.3803 8.46646 28.3911 7.64123 28.5445C3.9084 29.2387 1.46263 32.9799 2.39683 36.5665C3.30888 40.0678 6.89611 42.244 10.2959 41.3585C11.4591 41.0555 12.4 40.5276 13.2903 39.6783C14.1128 38.8938 14.948 37.4703 15.1182 36.5626L15.2063 36.0937H16.9459H18.6854L18.853 37.8369C19.2113 41.5649 20.2929 45.6172 21.7353 48.6368C22.1129 49.4273 22.4219 50.1194 22.4219 50.1746C22.4219 50.2299 21.8836 50.3804 21.2256 50.5092C20.5677 50.638 19.1689 50.9584 18.1176 51.2212L16.2057 51.6992L15.6908 51.1084C14.779 50.062 13.17 47.5537 12.3582 45.9131C11.5681 44.3164 11.3034 44.0234 10.6514 44.0234C10.2471 44.0234 9.70705 44.629 9.70705 45.0825C9.70705 45.296 10.0777 46.2224 10.5308 47.1411C13.9392 54.054 20.5118 59.4614 27.8321 61.3753C28.3804 61.5186 28.3912 61.5334 28.5446 62.3587C29.2388 66.0916 32.98 68.5373 36.5665 67.6031C40.0679 66.6911 42.2441 63.1038 41.3585 59.7041C41.0556 58.5409 40.5277 57.6 39.6784 56.7096C38.8939 55.8871 37.4704 55.0519 36.5627 54.8817L36.0938 54.7937V53.0273V51.2609L37.5635 51.3418C40.0407 51.4782 43.6756 51.8262 43.7882 51.9376C43.8468 51.9956 43.4622 52.6197 42.9337 53.3246C41.8794 54.7305 41.7299 55.2649 42.2461 55.7812C42.5126 56.0477 43.104 56.1365 43.5278 55.974C43.7441 55.8908 45.3469 53.8293 45.9776 52.8225L46.3322 52.2564L47.3994 52.4528C47.9865 52.5608 49.2652 52.84 50.2413 53.0731L52.0158 53.4969L51.2667 54.1689C50.1031 55.2127 47.6714 56.7825 45.9022 57.6322C43.8616 58.6122 43.5045 59.0865 44.1702 59.9327C44.625 60.5111 45.2092 60.4221 47.1055 59.4853C54.062 56.0489 59.4585 49.5001 61.3754 42.1678C61.5187 41.6196 61.5334 41.6088 62.3588 41.4554C66.0916 40.7611 68.5374 37.02 67.6032 33.4334C66.6911 29.932 63.1039 27.7559 59.7041 28.6414C58.5409 28.9444 57.6 29.4723 56.7097 30.3216C55.8872 31.1061 55.052 32.5296 54.8818 33.4372L54.7937 33.9062H53.0478H51.3019L51.2084 32.7099C50.9011 28.7753 49.8339 24.6717 48.2526 21.3446C47.8817 20.5642 47.5781 19.8805 47.5781 19.8252C47.5781 19.77 48.1165 19.6195 48.7744 19.4907C49.4324 19.3619 50.8311 19.0414 51.8825 18.7787L53.7943 18.3007L54.3124 18.8915C55.2356 19.9443 56.7388 22.29 57.6298 24.0682C58.1083 25.0232 58.6008 25.8432 58.724 25.8905C59.4917 26.185 60.293 25.6977 60.293 24.9365C60.293 24.7125 59.9223 23.7775 59.4692 22.8588C57.3352 18.5305 53.9428 14.7198 49.834 12.0354C47.7917 10.7012 44.3587 9.17144 42.1679 8.61937C41.6187 8.48101 41.6091 8.46802 41.4555 7.64115C40.759 3.89642 36.9658 1.4378 33.3747 2.40359ZM37.0579 4.93671C37.9824 5.42945 38.3999 5.86435 38.9327 6.8896C39.241 7.48296 39.296 7.76241 39.2986 8.74993C39.3013 9.81415 39.2624 9.98464 38.837 10.7735C38.3197 11.733 37.8907 12.1473 36.8603 12.6826C36.2649 12.992 35.9911 13.0455 35 13.0455C34.0089 13.0455 33.7351 12.992 33.1397 12.6826C32.1094 12.1473 31.6803 11.733 31.163 10.7735C30.7371 9.98369 30.6988 9.81552 30.7029 8.74993C30.708 7.37865 31.0324 6.55833 31.9206 5.67089C33.2854 4.30712 35.3288 4.01495 37.0579 4.93671ZM43.3944 11.3084C45.9915 12.2055 49.4528 14.1927 51.2672 15.8281L52.0167 16.5038L50.4587 16.8764C49.6017 17.0813 48.3253 17.3579 47.6223 17.4909L46.3441 17.7329L45.6426 16.6936C44.6913 15.2845 43.533 13.8519 43.1333 13.5899C42.7174 13.3174 42.052 13.4442 41.7677 13.8498C41.4333 14.3272 41.5227 14.8294 42.0688 15.5412C43.5128 17.4235 43.884 17.9671 43.7875 18.0583C43.6708 18.1688 39.7026 18.542 37.4951 18.6503L36.0938 18.7189V16.9625V15.2062L36.5627 15.1182C38.1664 14.8174 40.1235 13.2096 40.8963 11.5584C41.3796 10.5255 41.1849 10.5451 43.3944 11.3084ZM27.0703 20.4324C28.5979 20.6059 32.7689 20.912 33.667 20.9167C33.8915 20.9178 33.9063 21.3188 33.9063 27.412V33.9062H27.3998H20.8934L20.9877 32.7099C21.2905 28.867 22.3027 25.1699 24.0207 21.6302C24.603 20.4304 24.8205 20.1018 24.9973 20.1547C25.1222 20.1921 26.0552 20.317 27.0703 20.4324ZM45.9821 21.6357C47.6974 25.1697 48.7096 28.8693 49.0123 32.7099L49.1067 33.9062H42.6002H36.0938V27.4252V20.9442L37.5635 20.861C40.2251 20.7102 43.8296 20.3553 45.1422 20.1147C45.1935 20.1052 45.5715 20.7898 45.9821 21.6357ZM10.8079 31.1867C11.7324 31.6794 12.1499 32.1144 12.6827 33.1396C12.991 33.733 13.046 34.0124 13.0486 34.9999C13.0513 36.0642 13.0124 36.2346 12.587 37.0235C12.0697 37.983 11.6407 38.3973 10.6103 38.9327C10.0149 39.2421 9.74109 39.2955 8.75002 39.2955C7.75894 39.2955 7.48509 39.2421 6.88968 38.9327C5.85937 38.3973 5.43035 37.983 4.913 37.0235C4.48713 36.2337 4.44884 36.0655 4.45295 34.9999C4.458 33.6286 4.78244 32.8083 5.67056 31.9209C7.03543 30.5571 9.07882 30.265 10.8079 31.1867ZM63.3079 31.1867C64.2324 31.6794 64.6499 32.1144 65.1827 33.1396C65.491 33.733 65.546 34.0124 65.5486 34.9999C65.5513 36.0642 65.5124 36.2346 65.087 37.0235C64.5697 37.983 64.1407 38.3973 63.1103 38.9327C62.5149 39.2421 62.2411 39.2955 61.25 39.2955C60.2589 39.2955 59.9851 39.2421 59.3897 38.9327C58.3594 38.3973 57.9303 37.983 57.413 37.0235C56.9871 36.2337 56.9488 36.0655 56.9529 34.9999C56.958 33.6286 57.2824 32.8083 58.1706 31.9209C59.5354 30.5571 61.5788 30.265 63.3079 31.1867ZM33.9063 42.5878C33.9063 46.1596 33.8601 49.0828 33.8037 49.0839C31.848 49.1207 25.6338 49.6586 24.9973 49.8462C24.8208 49.8982 24.602 49.5676 24.0207 48.3697C22.3027 44.83 21.2905 41.1329 20.9877 37.29L20.8934 36.0937H27.3998H33.9063V42.5878ZM49.0238 37.2216C48.6957 41.1787 47.721 44.8021 46.063 48.2298C45.3361 49.7328 45.2199 49.9 44.9452 49.8398C43.9462 49.6208 38.1761 49.1223 36.1963 49.084C36.1398 49.0829 36.0938 46.1596 36.0938 42.5878V36.0937H42.6055H49.1173L49.0238 37.2216ZM54.8818 36.5626C55.1826 38.1663 56.7904 40.1235 58.4415 40.8962C59.2743 41.286 59.329 41.3389 59.248 41.6776C59.0326 42.5794 58.0866 45.0283 57.4969 46.2109C56.8021 47.6045 55.148 50.1459 54.3114 51.1054L53.7988 51.6933L51.5505 51.1389C50.3139 50.834 48.9143 50.5171 48.4401 50.4345C47.966 50.352 47.5781 50.2676 47.5781 50.2471C47.5781 50.2266 47.8501 49.6239 48.1824 48.9078C49.8903 45.2281 50.8874 41.3999 51.2084 37.29L51.3019 36.0937H53.0478H54.7937L54.8818 36.5626ZM33.9063 53.0316V54.7937L33.4373 54.8817C31.8336 55.1825 29.8765 56.7903 29.1037 58.4415C28.6173 59.4809 28.8213 59.466 26.47 58.6345C23.8691 57.7148 20.5692 55.7994 18.6695 54.1065L17.9933 53.504L19.148 53.2151C19.7831 53.0561 20.9487 52.7976 21.7383 52.6404C22.5278 52.4833 23.281 52.3318 23.4119 52.3037C23.5851 52.2666 23.9321 52.6609 24.6855 53.7506C26.3724 56.1901 26.9802 56.7006 27.8161 56.3799C28.0576 56.2872 28.4375 55.6405 28.4375 55.3222C28.4375 55.2127 27.9158 54.4329 27.278 53.5892C26.6402 52.7455 26.146 52.0109 26.1795 51.9566C26.2797 51.7945 30.4526 51.4091 33.3936 51.2903L33.9063 51.2695V53.0316ZM37.0579 57.4367C37.9824 57.9295 38.3999 58.3644 38.9327 59.3896C39.241 59.983 39.296 60.2624 39.2986 61.2499C39.3013 62.3142 39.2624 62.4846 38.837 63.2735C38.3197 64.233 37.8907 64.6473 36.8603 65.1827C36.2649 65.4921 35.9911 65.5455 35 65.5455C34.0089 65.5455 33.7351 65.4921 33.1397 65.1827C32.1094 64.6473 31.6803 64.233 31.163 63.2735C30.7371 62.4837 30.6988 62.3155 30.7029 61.2499C30.708 59.8786 31.0324 59.0583 31.9206 58.1709C33.2854 56.8071 35.3288 56.515 37.0579 57.4367Z" fill="#11295A"/>
<path d="M6.83525 18.7732C6.83416 18.2223 8.45141 15.8252 10.185 13.8081L10.239 13.753C12.8077 11.1311 14.9298 8.96498 22.7637 4.80583C24.0781 4.26702 24.3451 4.24897 24.8296 4.66583C25.2813 5.05439 25.3328 5.73497 24.9398 6.12435C24.7957 6.26722 24.0625 6.638 23.3105 6.94835C19.4286 8.96792 13.125 12.9316 9.11367 18.8756C8.93659 19.2829 8.45879 19.7236 8.26137 19.7987C7.52172 20.0799 6.83662 19.5873 6.83525 18.7732Z" fill="#0C5AE9"/>
<path d="M4.375 23.2128C4.375 22.9465 4.499 22.6662 4.71064 22.4547C4.92215 22.2431 5.20242 22.1191 5.46875 22.1191C6.0308 22.1191 6.5625 22.6508 6.5625 23.2128C6.5625 24.1686 5.38877 24.6492 4.71064 23.9709C4.499 23.7594 4.375 23.4792 4.375 23.2128Z" fill="#0C5AE9"/>
<path d="M51.2268 6.83525C51.7777 6.83416 54.1748 8.45141 56.1919 10.185L56.247 10.239C58.8689 12.8077 61.035 14.9298 65.1942 22.7637C65.733 24.0781 65.751 24.3451 65.3342 24.8296C64.9456 25.2813 64.265 25.3328 63.8757 24.9398C63.7328 24.7957 63.362 24.0625 63.0516 23.3105C61.0321 19.4286 57.0684 13.125 51.1244 9.11367C50.7171 8.93659 50.2764 8.45879 50.2013 8.26137C49.9201 7.52172 50.4127 6.83662 51.2268 6.83525Z" fill="#0C5AE9"/>
<path d="M46.7872 4.375C47.0535 4.375 47.3338 4.499 47.5453 4.71064C47.7569 4.92215 47.8809 5.20242 47.8809 5.46875C47.8809 6.0308 47.3492 6.5625 46.7872 6.5625C45.8314 6.5625 45.3508 5.38877 46.0291 4.71064C46.2406 4.499 46.5208 4.375 46.7872 4.375Z" fill="#0C5AE9"/>
<path d="M63.1647 51.2268C63.1658 51.7777 61.5486 54.1748 59.815 56.1919L59.761 56.247C57.1923 58.8689 55.0702 61.035 47.2363 65.1942C45.9219 65.733 45.6549 65.751 45.1704 65.3342C44.7187 64.9456 44.6672 64.265 45.0602 63.8757C45.2043 63.7328 45.9375 63.362 46.6895 63.0516C50.5714 61.0321 56.875 57.0684 60.8863 51.1244C61.0634 50.7171 61.5412 50.2764 61.7386 50.2013C62.4783 49.9201 63.1634 50.4127 63.1647 51.2268Z" fill="#0C5AE9"/>
<path d="M65.625 46.7872C65.625 47.0535 65.501 47.3338 65.2894 47.5453C65.0779 47.7569 64.7976 47.8809 64.5313 47.8809C63.9692 47.8809 63.4375 47.3492 63.4375 46.7872C63.4375 45.8314 64.6112 45.3508 65.2894 46.0291C65.501 46.2406 65.625 46.5208 65.625 46.7872Z" fill="#0C5AE9"/>
<path d="M18.7732 63.1647C18.2223 63.1658 15.8252 61.5486 13.8081 59.815L13.753 59.761C11.1311 57.1923 8.96498 55.0702 4.80583 47.2363C4.26702 45.9219 4.24898 45.6549 4.66583 45.1704C5.05439 44.7187 5.73497 44.6672 6.12435 45.0602C6.26722 45.2043 6.638 45.9375 6.94835 46.6895C8.96792 50.5714 12.9316 56.875 18.8756 60.8863C19.2829 61.0634 19.7236 61.5412 19.7987 61.7386C20.0799 62.4783 19.5873 63.1634 18.7732 63.1647Z" fill="#0C5AE9"/>
<path d="M23.2128 65.625C22.9465 65.625 22.6662 65.501 22.4547 65.2894C22.2431 65.0779 22.1191 64.7976 22.1191 64.5313C22.1191 63.9692 22.6508 63.4375 23.2128 63.4375C24.1686 63.4375 24.6492 64.6112 23.9709 65.2894C23.7594 65.501 23.4792 65.625 23.2128 65.625Z" fill="#0C5AE9"/>
</svg>
