<svg width="70" height="70" viewBox="0 0 70 70" fill="none" xmlns="http://www.w3.org/2000/svg">
<path d="M32.8359 30.2529L40.2098 30.2529L40.2098 37.6268" stroke="#0C5AE9" stroke-miterlimit="10" stroke-linecap="round" stroke-linejoin="round"/>
<path d="M29.8838 40.5791L40.1064 30.3565" stroke="#0C5AE9" stroke-miterlimit="10" stroke-linecap="round" stroke-linejoin="round"/>
<path d="M59.9126 43.009C59.4968 42.9262 59.1451 42.746 58.8575 42.4685C58.5778 42.1925 58.3796 41.8553 58.2628 41.4568C58.1523 41.0677 58.1391 40.6613 58.223 40.2375L59.0044 36.2942L67.3602 37.9587L66.5625 41.9844C66.4848 42.3768 66.312 42.6931 66.0442 42.9334C65.7827 43.1831 65.4724 43.3497 65.1133 43.4332C64.7605 43.5261 64.4076 43.5373 64.0546 43.467C63.6387 43.3842 63.2753 43.2016 62.9642 42.9194C62.6531 42.6372 62.4486 42.2906 62.3506 41.8795C62.1145 42.3301 61.7771 42.6544 61.3382 42.8525C60.8978 43.0584 60.4226 43.1106 59.9126 43.009ZM60.2171 42.2131C60.4995 42.2694 60.7709 42.2582 61.0311 42.1795C61.2992 42.1024 61.5296 41.9689 61.7222 41.7788C61.9132 41.5966 62.036 41.3682 62.0904 41.0935L62.7248 37.8918L59.559 37.2612L58.9409 40.3805C58.885 40.663 58.909 40.9329 59.0129 41.1902C59.1169 41.4475 59.2734 41.6662 59.4823 41.8465C59.6975 42.0362 59.9425 42.1584 60.2171 42.2131ZM66.479 38.6396L63.3956 38.0254L62.8265 40.8976C62.7721 41.1722 62.7945 41.4296 62.8938 41.6696C63.0009 41.9112 63.1596 42.1182 63.3701 42.2906C63.5806 42.4631 63.8193 42.5759 64.086 42.629C64.3685 42.6853 64.6351 42.6772 64.886 42.6048C65.1447 42.534 65.3649 42.4106 65.5465 42.2347C65.7282 42.0588 65.8446 41.8414 65.896 41.5824L66.479 38.6396Z" fill="#0C5AE9"/>
<path d="M57.1725 43.6486L62.9099 46.1326L62.5871 46.882L56.8498 44.3981L57.1725 43.6486ZM64.1102 46.6523L65.2115 47.129L64.8887 47.8785L63.7875 47.4017L64.1102 46.6523Z" fill="#0C5AE9"/>
<path d="M54.2655 48.722C54.5346 48.3539 54.8502 48.0646 55.2122 47.8541C55.5759 47.6548 55.9652 47.5289 56.3801 47.4764C56.7903 47.4304 57.2006 47.4589 57.6109 47.5619C58.0164 47.6713 58.3965 47.8563 58.751 48.1169C59.2281 48.4675 59.5853 48.8939 59.8227 49.396C60.0601 49.8981 60.1556 50.425 60.1091 50.9766C60.0626 51.5282 59.8575 52.0526 59.494 52.5499C59.1493 53.0213 58.7352 53.3573 58.2516 53.5579C57.7745 53.7632 57.2885 53.818 56.7936 53.7224L57.0579 52.9338C57.4197 52.9812 57.7659 52.9279 58.0965 52.7738C58.4289 52.6309 58.7084 52.4044 58.9351 52.0944C59.1806 51.7586 59.3178 51.3879 59.3468 50.9823C59.3758 50.5766 59.3002 50.1785 59.1199 49.7879C58.935 49.4038 58.6492 49.0696 58.2624 48.7853C57.8821 48.5058 57.4758 48.3363 57.0436 48.2768C56.6115 48.2173 56.2004 48.2577 55.8104 48.398C55.4269 48.5431 55.1124 48.7835 54.8669 49.1193C54.7064 49.3389 54.5916 49.5772 54.5226 49.8343C54.4488 50.0978 54.4221 50.3512 54.4425 50.5945C54.4645 50.849 54.534 51.0589 54.651 51.2243L53.9831 51.7312C53.8107 51.4655 53.7057 51.155 53.6681 50.7997C53.6322 50.4557 53.6634 50.1013 53.7615 49.7366C53.8614 49.3831 54.0294 49.0449 54.2655 48.722Z" fill="#0C5AE9"/>
<path d="M50.272 50.8378C50.178 50.8991 50.0895 50.9611 50.0066 51.0239C49.9189 51.0804 49.8607 51.1294 49.8321 51.1712C49.7652 51.242 49.7256 51.3423 49.7132 51.4721C49.7009 51.6019 49.7287 51.8116 49.7968 52.1013C49.8649 52.391 49.9717 52.8119 50.1173 53.364L56.0515 56.7116L55.3629 57.2334L50.2786 54.2957L51.8527 59.8931L51.2023 60.3859L48.9311 51.9894C48.8842 51.8342 48.8669 51.6717 48.8791 51.5018C48.8865 51.3256 48.9355 51.158 49.0261 50.999C49.1055 50.8385 49.2384 50.6826 49.4249 50.5313C49.4774 50.4814 49.538 50.4355 49.6066 50.3936C49.664 50.3501 49.7389 50.3033 49.8315 50.2533L50.272 50.8378Z" fill="#0C5AE9"/>
<path d="M43.4779 57.0771C43.9053 56.9181 44.3281 56.8505 44.7463 56.8742C45.1597 56.9082 45.5542 57.0175 45.9296 57.2022C46.2975 57.3897 46.6245 57.6394 46.9104 57.9513C47.1889 58.266 47.4045 58.6296 47.5572 59.0423C47.7626 59.5975 47.8262 60.15 47.7481 60.6997C47.67 61.2494 47.4597 61.7416 47.1173 62.1762C46.7748 62.6109 46.3149 62.9356 45.7375 63.1503C45.1902 63.3539 44.6593 63.4062 44.1451 63.3073C43.6336 63.2159 43.1975 62.994 42.8368 62.6416L43.4917 62.1292C43.7677 62.3679 44.0862 62.5141 44.4472 62.5676C44.8034 62.6314 45.1615 62.5964 45.5214 62.4625C45.9113 62.3175 46.23 62.0837 46.4775 61.7612C46.725 61.4387 46.881 61.0649 46.9455 60.6397C47.0024 60.2174 46.9477 59.7811 46.7811 59.3309C46.6173 58.8883 46.3714 58.5231 46.0432 58.2355C45.715 57.9478 45.3494 57.7552 44.9465 57.6575C44.5464 57.5673 44.1513 57.5948 43.7614 57.7398C43.5065 57.8346 43.2795 57.9703 43.0803 58.1468C42.8737 58.326 42.7119 58.5228 42.595 58.737C42.4733 58.9615 42.4158 59.1749 42.4224 59.3773L41.5856 59.4325C41.5878 59.1158 41.6711 58.7989 41.8352 58.4818C41.9947 58.175 42.2158 57.8964 42.4985 57.6462C42.7765 57.4062 43.103 57.2165 43.4779 57.0771Z" fill="#0C5AE9"/>
<path d="M41.0027 66.9704L40.1974 67.1021L39.0182 59.8534C38.9681 59.5454 38.8801 59.3531 38.7542 59.2764C38.6282 59.1998 38.4863 59.1743 38.3284 59.2002C38.1863 59.2234 38.0468 59.2624 37.9098 59.3173C37.7728 59.3721 37.6556 59.4237 37.5581 59.4721L37.31 58.8439C37.4497 58.7562 37.6269 58.6745 37.8415 58.5989C38.0483 58.5245 38.2306 58.4744 38.3885 58.4486C38.7517 58.3892 39.0612 58.448 39.3169 58.6251C39.5647 58.8034 39.7189 59.0782 39.7792 59.4493L41.0027 66.9704Z" fill="#0C5AE9"/>
<path d="M33.676 58.6037C34.1222 58.6435 34.5291 58.7642 34.8968 58.9656C35.2637 59.175 35.5736 59.4396 35.8263 59.7593C36.0783 60.087 36.2667 60.4532 36.3914 60.8578C36.5082 61.2618 36.5468 61.6869 36.5072 62.1332C36.4556 62.7149 36.2768 63.2371 35.9707 63.6997C35.6567 64.1616 35.2519 64.5151 34.7563 64.76C34.26 65.0129 33.7131 65.1128 33.1154 65.0595C32.5019 65.0048 31.9811 64.8097 31.553 64.4744C31.117 64.1383 30.7891 63.7155 30.5692 63.206C30.3487 62.7044 30.2638 62.1668 30.3147 61.593C30.3204 61.5293 30.326 61.4655 30.3317 61.4018C30.3366 61.346 30.3445 61.3025 30.3553 61.2714L35.6862 61.7467C35.6859 61.2969 35.5977 60.8875 35.4217 60.5184C35.2369 60.1565 34.9864 59.8571 34.6701 59.6201C34.3451 59.3903 33.9834 59.2576 33.585 59.2221C33.1786 59.1859 32.7869 59.2554 32.41 59.4306C32.0251 59.6051 31.746 59.8533 31.5729 60.1752L30.8847 59.921C31.0383 59.6376 31.2572 59.388 31.5414 59.1724C31.8256 58.9568 32.1529 58.7972 32.5235 58.6937C32.8854 58.5975 33.2696 58.5675 33.676 58.6037ZM35.6581 62.3345L31.0564 61.9242C31.048 62.3813 31.1361 62.7907 31.3209 63.1525C31.4977 63.5137 31.7489 63.8051 32.0746 64.0269C32.3916 64.256 32.7533 64.3887 33.1597 64.4249C33.566 64.4611 33.9454 64.3946 34.2978 64.2252C34.6494 64.0638 34.9483 63.8174 35.1946 63.4859C35.4321 63.1617 35.5867 62.7779 35.6581 62.3345Z" fill="#0C5AE9"/>
<path d="M25.3674 57.0262L20.7497 64.1864L18.3231 62.6131C17.5646 62.1213 17.0377 61.5509 16.7423 60.9017C16.436 60.255 16.3308 59.5766 16.4269 58.8667C16.5187 58.1635 16.7771 57.4824 17.202 56.8235C17.6703 56.0974 18.2188 55.5569 18.8476 55.2018C19.4697 54.8424 20.1345 54.6823 20.8422 54.7216C21.5431 54.7565 22.2426 55.0003 22.9408 55.4529L25.3674 57.0262ZM17.9068 57.2805C17.5383 57.852 17.3183 58.4292 17.247 59.0122C17.1689 59.5908 17.251 60.1351 17.4933 60.645C17.7313 61.1616 18.1423 61.6092 18.7263 61.9878L20.4481 63.1042L24.2593 57.1945L22.5375 56.0782C21.9468 55.6952 21.3655 55.5043 20.7937 55.5053C20.2218 55.5064 19.6888 55.6614 19.1945 55.9702C18.6959 56.2857 18.2667 56.7225 17.9068 57.2805Z" fill="#0C5AE9"/>
<path d="M16.6318 49.8166C16.9014 50.1744 17.0849 50.5573 17.1821 50.9655C17.2729 51.3784 17.2847 51.7861 17.2173 52.1884C17.1435 52.5956 16.9986 52.9815 16.7824 53.346C16.5615 53.7041 16.2725 54.0185 15.9154 54.289C15.4499 54.6417 14.9433 54.86 14.3954 54.9439C13.8427 55.0214 13.3096 54.9587 12.7959 54.7557C12.2759 54.5575 11.8354 54.2188 11.4742 53.7397C11.1035 53.2478 10.8988 52.7303 10.8603 52.1874C10.8169 51.6381 10.9103 51.1107 11.1403 50.6052C11.364 50.1044 11.7054 49.6802 12.1645 49.3323C12.2155 49.2936 12.2665 49.255 12.3175 49.2163C12.3621 49.1825 12.3996 49.1591 12.4299 49.1462L15.6513 53.4202C15.9842 53.1177 16.2284 52.7771 16.3838 52.3984C16.528 52.0182 16.5818 51.6311 16.5454 51.2371C16.4977 50.8416 16.3535 50.4842 16.1128 50.1647C15.8672 49.8389 15.5532 49.5951 15.1707 49.4332C14.7834 49.2649 14.4126 49.2248 14.0581 49.3127L13.785 48.6314C14.0979 48.5548 14.4295 48.5495 14.7797 48.6154C15.1299 48.6812 15.4675 48.8169 15.7926 49.0222C16.1065 49.226 16.3862 49.4908 16.6318 49.8166ZM15.197 53.7945L12.4163 50.105C12.0721 50.406 11.8279 50.7466 11.6838 51.1268C11.5348 51.5007 11.4873 51.8829 11.5413 52.2736C11.5841 52.6627 11.7283 53.0202 11.9739 53.346C12.2195 53.6718 12.5231 53.9085 12.8847 54.056C13.24 54.2084 13.6229 54.2645 14.0335 54.2245C14.4329 54.1828 14.8207 54.0395 15.197 53.7945Z" fill="#0C5AE9"/>
<path d="M12.9801 43.8562L7.93091 48.3347L7.64731 47.5313L12.0593 43.6991L6.22128 43.4916L5.95365 42.7335L12.6885 43.0301L12.9801 43.8562Z" fill="#0C5AE9"/>
<path d="M9.53085 29.1025C9.95255 29.1467 10.3193 29.2937 10.6311 29.5436C10.9349 29.7926 11.1632 30.1101 11.316 30.4961C11.4617 30.8733 11.5122 31.2768 11.4674 31.7065L11.0508 35.7048L2.57718 34.8172L3.0025 30.7353C3.04395 30.3375 3.18701 30.0066 3.43168 29.7426C3.66923 29.4699 3.96296 29.2754 4.31288 29.1592C4.65568 29.0343 5.0061 28.9905 5.36414 29.0281C5.78583 29.0722 6.16451 29.2205 6.50016 29.4728C6.83582 29.7252 7.07127 30.0515 7.20652 30.4517C7.40031 29.9814 7.70664 29.6274 8.12553 29.3897C8.54524 29.1441 9.01368 29.0484 9.53085 29.1025ZM9.30059 29.923C9.01415 29.893 8.74496 29.9292 8.493 30.0315C8.23308 30.1329 8.01593 30.2872 7.84155 30.4941C7.66799 30.6931 7.5667 30.9319 7.53768 31.2104L7.19942 34.4568L10.4099 34.7931L10.7394 31.6302C10.7693 31.3438 10.7206 31.0772 10.5935 30.8307C10.4664 30.5841 10.2905 30.3806 10.0659 30.2204C9.83416 30.0513 9.57906 29.9522 9.30059 29.923ZM3.39225 34.058L6.51915 34.3855L6.82258 31.4733C6.8516 31.1948 6.80569 30.9406 6.68486 30.7108C6.55607 30.4801 6.37897 30.2886 6.15354 30.1363C5.92811 29.984 5.68013 29.8937 5.40961 29.8653C5.12318 29.8353 4.85838 29.8679 4.6152 29.9631C4.36407 30.0575 4.15612 30.2006 3.99135 30.3925C3.82658 30.5843 3.73051 30.8116 3.70315 31.0741L3.39225 34.058Z" fill="#0C5AE9"/>
<path d="M12.1865 28.2467L6.24135 26.3121L6.49263 25.5358L12.4378 27.4704L12.1865 28.2467ZM4.99754 25.9074L3.85644 25.5361L4.10772 24.7597L5.24883 25.1311L4.99754 25.9074Z" fill="#0C5AE9"/>
<path d="M14.6183 22.8987C14.3839 23.2898 14.0961 23.6068 13.7548 23.8495C13.4108 24.0812 13.0346 24.2422 12.6262 24.3324C12.2219 24.4158 11.8107 24.4249 11.3927 24.3599C10.9788 24.2881 10.5834 24.1386 10.2064 23.9116C9.69933 23.6062 9.30459 23.2143 9.02224 22.7361C8.73989 22.2578 8.59666 21.742 8.59253 21.1885C8.5884 20.635 8.74463 20.094 9.06122 19.5656C9.36136 19.0646 9.74305 18.6922 10.2063 18.4482C10.6627 18.2001 11.1417 18.101 11.6433 18.151L11.4522 18.9604C11.0876 18.9463 10.7477 19.0311 10.4325 19.2148C10.1145 19.3875 9.85684 19.6386 9.65948 19.968C9.44568 20.3248 9.3429 20.7065 9.35114 21.1131C9.35937 21.5196 9.47108 21.9091 9.68627 22.2815C9.90557 22.6471 10.2208 22.9537 10.632 23.2013C11.0363 23.4449 11.4564 23.5765 11.8922 23.5962C12.3281 23.6159 12.7338 23.538 13.1093 23.3626C13.478 23.1831 13.7692 22.9149 13.983 22.5581C14.1228 22.3247 14.2153 22.0769 14.2605 21.8147C14.3099 21.5455 14.3133 21.2908 14.2708 21.0504C14.2255 20.799 14.1371 20.5963 14.0056 20.4424L14.6244 19.8765C14.8204 20.1253 14.9533 20.4248 15.0232 20.7751C15.0904 21.1144 15.0918 21.4701 15.0274 21.8423C14.9602 22.2034 14.8238 22.5555 14.6183 22.8987Z" fill="#0C5AE9"/>
<path d="M18.3248 20.4989C18.4126 20.429 18.4949 20.3589 18.5714 20.2885C18.6534 20.2241 18.7067 20.1697 18.7312 20.1254C18.7911 20.0486 18.8211 19.9451 18.8211 19.8147C18.8212 19.6842 18.7736 19.4781 18.6785 19.1961C18.5833 18.9141 18.4372 18.5052 18.24 17.9693L12.0164 15.1974L12.6526 14.6128L17.9915 17.057L15.8955 11.6332L16.4964 11.0811L19.5508 19.2257C19.6122 19.3757 19.6448 19.5359 19.6486 19.7062C19.6579 19.8823 19.625 20.0538 19.5498 20.2206C19.486 20.388 19.3684 20.5557 19.1971 20.724C19.1495 20.7787 19.0935 20.8301 19.0292 20.8783C18.9762 20.927 18.906 20.9806 18.8186 21.0392L18.3248 20.4989Z" fill="#0C5AE9"/>
<path d="M24.5553 13.5938C24.1446 13.792 23.73 13.8988 23.3114 13.9142C22.8966 13.919 22.4938 13.8469 22.1028 13.698C21.7191 13.5456 21.3704 13.3275 21.0567 13.0437C20.7501 12.7563 20.5017 12.4143 20.3113 12.0176C20.0551 11.4839 19.9403 10.9398 19.9669 10.3851C19.9935 9.83039 20.157 9.32067 20.4575 8.8559C20.7579 8.39113 21.1856 8.02488 21.7403 7.75717C22.2663 7.50336 22.7899 7.40171 23.3111 7.45223C23.8288 7.49553 24.2836 7.67579 24.6754 7.99301L24.0712 8.56439C23.7742 8.3524 23.4435 8.2366 23.0792 8.21701C22.7186 8.18672 22.3653 8.25502 22.0195 8.42191C21.6448 8.60271 21.3493 8.86522 21.133 9.20945C20.9166 9.55368 20.7962 9.94049 20.7715 10.3699C20.7541 10.7957 20.8493 11.2251 21.057 11.6578C21.2612 12.0833 21.5401 12.424 21.8936 12.6798C22.2471 12.9355 22.6289 13.0933 23.0392 13.1529C23.4459 13.2053 23.8366 13.1412 24.2113 12.9604C24.4562 12.8422 24.6696 12.6859 24.8514 12.4916C25.0405 12.2938 25.1832 12.0828 25.2797 11.8585C25.3799 11.6236 25.4173 11.4057 25.3918 11.2048L26.2198 11.0718C26.247 11.3873 26.1937 11.7106 26.0598 12.0417C25.9296 12.3621 25.7354 12.6601 25.4773 12.9357C25.2228 13.2006 24.9155 13.42 24.5553 13.5938Z" fill="#0C5AE9"/>
<path d="M26.0112 3.52686L26.8003 3.31889L28.6627 10.4228C28.7418 10.7246 28.8477 10.9077 28.9803 10.972C29.113 11.0363 29.2567 11.0481 29.4114 11.0073C29.5506 10.9706 29.6858 10.9184 29.817 10.8508C29.9481 10.7831 30.0599 10.7206 30.1523 10.6631L30.4589 11.2648C30.3282 11.3655 30.1596 11.4637 29.9531 11.5595C29.7544 11.6532 29.5777 11.7205 29.423 11.7613C29.0671 11.855 28.7535 11.826 28.4821 11.6742C28.2185 11.5203 28.039 11.2615 27.9436 10.8978L26.0112 3.52686Z" fill="#0C5AE9"/>
<path d="M34.0029 11.1484C33.5549 11.1519 33.1383 11.0711 32.753 10.9061C32.3677 10.7331 32.0338 10.4997 31.7516 10.2058C31.4692 9.90402 31.2466 9.55773 31.0836 9.16698C30.9285 8.77617 30.8493 8.35677 30.8459 7.90878C30.8414 7.3248 30.9692 6.7878 31.2295 6.29777C31.4977 5.80768 31.8667 5.41681 32.3365 5.12516C32.8062 4.82552 33.341 4.67337 33.941 4.66873C34.557 4.66396 35.0941 4.80781 35.5524 5.10027C36.0186 5.39267 36.3856 5.78184 36.6534 6.26778C36.9211 6.74572 37.0571 7.27269 37.0616 7.84867C37.0621 7.91267 37.0626 7.97666 37.0631 8.04066C37.0635 8.09666 37.0598 8.14069 37.0521 8.17275L31.7002 8.21418C31.7437 8.66186 31.8708 9.06089 32.0815 9.41126C32.3001 9.75358 32.5782 10.0274 32.9158 10.2328C33.2613 10.4302 33.6341 10.5273 34.0341 10.5242C34.4421 10.521 34.8253 10.4141 35.1837 10.2033C35.55 9.99243 35.8039 9.71846 35.9453 9.38135L36.6548 9.56787C36.5291 9.86485 36.3352 10.1344 36.073 10.3764C35.8109 10.6184 35.5003 10.8088 35.1414 10.9476C34.7904 11.0783 34.4109 11.1453 34.0029 11.1484ZM31.6717 7.62638L36.2916 7.59062C36.2561 7.13488 36.129 6.73585 35.9103 6.39354C35.6997 6.05116 35.4216 5.7853 35.0762 5.59597C34.7386 5.39858 34.3659 5.30146 33.9579 5.30462C33.5499 5.30777 33.1787 5.41065 32.8442 5.61325C32.5097 5.80784 32.2358 6.08197 32.0226 6.43563C31.8172 6.78123 31.7003 7.17815 31.6717 7.62638Z" fill="#0C5AE9"/>
<path d="M42.6062 11.9226L46.5468 4.36866L49.108 5.71184C49.9086 6.1317 50.4857 6.6512 50.8395 7.27033C51.204 7.88608 51.3711 8.55181 51.3406 9.26753C51.3138 9.97615 51.1191 10.678 50.7565 11.3731C50.3569 12.1392 49.8603 12.7279 49.2667 13.1392C48.6802 13.5543 48.0328 13.7749 47.3245 13.8009C46.6232 13.8306 45.9042 13.6522 45.1674 13.2658L42.6062 11.9226ZM50.0126 10.983C50.3271 10.3801 50.4931 9.78513 50.5106 9.1981C50.5352 8.61478 50.4034 8.08044 50.1152 7.59507C49.8307 7.1026 49.3803 6.69474 48.7639 6.37148L46.9466 5.41843L43.6942 11.6531L45.5115 12.6061C46.1349 12.9331 46.7314 13.0698 47.3008 13.0161C47.8701 12.9624 48.3868 12.7591 48.8506 12.4061C49.3181 12.0461 49.7055 11.5717 50.0126 10.983Z" fill="#0C5AE9"/>
<path d="M51.9259 18.2386C51.6236 17.9079 51.4048 17.544 51.2695 17.1469C51.14 16.7444 51.0898 16.3396 51.1189 15.9327C51.1539 15.5203 51.2617 15.1225 51.4424 14.7391C51.6285 14.3617 51.8865 14.0214 52.2164 13.7183C52.6464 13.3232 53.1302 13.058 53.6676 12.9227C54.2105 12.7933 54.7472 12.8054 55.2777 12.9589C55.814 13.1071 56.2846 13.4026 56.6894 13.8455C57.105 14.3002 57.3576 14.796 57.4473 15.3328C57.5423 15.8756 57.4993 16.4095 57.318 16.9345C57.1427 17.4542 56.8429 17.9089 56.4188 18.2986C56.3716 18.3419 56.3245 18.3852 56.2774 18.4285C56.2362 18.4664 56.2011 18.4932 56.1721 18.5089L52.5615 14.5583C52.2585 14.891 52.0477 15.2531 51.9288 15.6448C51.8212 16.037 51.8042 16.4275 51.8777 16.8162C51.9625 17.2055 52.1398 17.5477 52.4097 17.843C52.6849 18.1442 53.0205 18.3572 53.4166 18.4822C53.818 18.6132 54.191 18.6181 54.5356 18.4971L54.8718 19.1496C54.5675 19.2554 54.2379 19.292 53.8831 19.2595C53.5283 19.227 53.1794 19.1239 52.8363 18.9502C52.5046 18.777 52.2011 18.5398 51.9259 18.2386ZM52.9782 14.1428L56.0951 17.5531C56.4092 17.2209 56.6201 16.8587 56.7277 16.4666C56.8407 16.0803 56.8519 15.6952 56.7612 15.3114C56.6818 14.9281 56.5044 14.5858 56.2292 14.2846C55.9539 13.9835 55.6293 13.7765 55.2554 13.6638C54.8873 13.5457 54.5008 13.526 54.0959 13.6047C53.7023 13.6839 53.3297 13.8633 52.9782 14.1428Z" fill="#0C5AE9"/>
<path d="M56.1598 23.8648L60.7687 18.9331L61.1259 19.7066L57.0911 23.9351L62.9222 23.5958L63.2593 24.3257L56.5271 24.6601L56.1598 23.8648Z" fill="#0C5AE9"/>
</svg>
