<svg width="56" height="56" viewBox="0 0 56 56" fill="none" xmlns="http://www.w3.org/2000/svg">
<path d="M0.00051489 9.91915C0.000542331 4.4409 4.44141 0 9.91959 0C15.0701 0 19.3018 3.92334 19.7912 8.94388C20.779 18.0562 28.9209 24.6706 38.0356 23.7795C38.6349 23.7128 39.2373 23.6794 39.8403 23.6795C48.7654 23.6795 56.0008 30.9148 56.0008 39.8403C56.0007 48.7658 48.7652 56 39.8401 56C30.915 56 23.6795 48.7647 23.6796 39.8395C23.6796 39.2365 23.713 38.6341 23.7795 38.0348C24.6705 28.92 18.0564 20.7779 8.94424 19.7901C3.92403 19.301 0.000489098 15.0683 0.00051489 9.91915Z" fill="url(#paint0_radial_121_5218)"/>
<defs>
<radialGradient id="paint0_radial_121_5218" cx="0" cy="0" r="1" gradientUnits="userSpaceOnUse" gradientTransform="translate(30.8916 54.2361) rotate(-109.029) scale(33.3756 30.4421)">
<stop stop-color="#0D6EFD"/>
<stop offset="0.734806" stop-color="#334D73" stop-opacity="0.24"/>
<stop offset="1" stop-color="#718BB0" stop-opacity="0.02"/>
</radialGradient>
</defs>
</svg>
