<svg width="66" height="64" viewBox="0 0 66 64" fill="none" xmlns="http://www.w3.org/2000/svg">
<path fill-rule="evenodd" clip-rule="evenodd" d="M9.71065 0.835645L9.375 1.17115V5.96875V10.7663L9.71065 11.1019C10.1546 11.5459 10.7829 11.5459 11.2269 11.1019C11.5502 10.7787 11.5625 10.6984 11.5625 8.91435V7.0625H13.4144C15.1984 7.0625 15.2787 7.0502 15.6019 6.72686C16.0459 6.28293 16.0459 5.65457 15.6019 5.21064C15.2787 4.8873 15.1984 4.875 13.4144 4.875H11.5625V3.02314C11.5625 1.2391 11.5502 1.15885 11.2269 0.835645C11.0154 0.624004 10.7351 0.5 10.4688 0.5C10.2024 0.5 9.92215 0.624004 9.71065 0.835645ZM18.4606 0.835645L18.125 1.17115V5.96875V10.7663L18.4606 11.1019C18.9046 11.5459 19.5329 11.5459 19.9769 11.1019C20.3002 10.7787 20.3125 10.6984 20.3125 8.91435V7.0625H22.1644C23.9484 7.0625 24.0287 7.0502 24.3519 6.72686C24.7959 6.28293 24.7959 5.65457 24.3519 5.21064C24.0287 4.8873 23.9484 4.875 22.1644 4.875H20.3125V3.02314C20.3125 1.2391 20.3002 1.15885 19.9769 0.835645C19.7654 0.624004 19.4851 0.5 19.2188 0.5C18.9524 0.5 18.6721 0.624004 18.4606 0.835645ZM27.2106 0.835645L26.875 1.17115V5.96875V10.7663L27.2106 11.1019C27.6546 11.5459 28.2829 11.5459 28.7269 11.1019C29.0502 10.7787 29.0625 10.6984 29.0625 8.91435V7.0625H30.9144C32.6984 7.0625 32.7787 7.0502 33.1019 6.72686C33.5459 6.28293 33.5459 5.65457 33.1019 5.21064C32.7787 4.8873 32.6984 4.875 30.9144 4.875H29.0625V3.02314C29.0625 1.2391 29.0502 1.15885 28.7269 0.835645C28.5154 0.624004 28.2351 0.5 27.9688 0.5C27.7024 0.5 27.4221 0.624004 27.2106 0.835645ZM35.9606 0.835645L35.625 1.17115V5.96875V10.7663L35.9606 11.1019C36.4046 11.5459 37.0329 11.5459 37.4769 11.1019C37.8002 10.7787 37.8125 10.6984 37.8125 8.91435V7.0625H39.6644C41.4484 7.0625 41.5287 7.0502 41.8519 6.72686C42.2959 6.28293 42.2959 5.65457 41.8519 5.21064C41.5287 4.8873 41.4484 4.875 39.6644 4.875H37.8125V3.02314C37.8125 1.2391 37.8002 1.15885 37.4769 0.835645C37.2654 0.624004 36.9851 0.5 36.7188 0.5C36.4524 0.5 36.1721 0.624004 35.9606 0.835645ZM44.7106 0.835645L44.375 1.17115V5.96875V10.7663L44.7106 11.1019C45.1546 11.5459 45.7829 11.5459 46.2269 11.1019C46.5502 10.7787 46.5625 10.6984 46.5625 8.91435V7.0625H48.4144C50.1984 7.0625 50.2787 7.0502 50.6019 6.72686C51.0459 6.28293 51.0459 5.65457 50.6019 5.21064C50.2787 4.8873 50.1984 4.875 48.4144 4.875H46.5625V3.02314C46.5625 1.2391 46.5502 1.15885 46.2269 0.835645C46.0154 0.624004 45.7351 0.5 45.4688 0.5C45.2024 0.5 44.9221 0.624004 44.7106 0.835645ZM53.4606 0.835645L53.125 1.17115V5.96875V10.7663L53.4606 11.1019C53.9046 11.5459 54.5329 11.5459 54.9769 11.1019C55.3002 10.7787 55.3125 10.6984 55.3125 8.91435V7.0625H57.1644C58.9484 7.0625 59.0287 7.0748 59.3519 7.39814L59.6875 7.73365V11.7731V15.8125H31.25H2.8125V11.7731V7.73365L3.14814 7.39814C3.4641 7.08219 3.57238 7.0625 5 7.0625C6.42762 7.0625 6.5359 7.04281 6.85186 6.72686C7.29592 6.28293 7.29592 5.65457 6.85186 5.21064C6.53562 4.89428 6.42844 4.875 4.98783 4.875C4.14728 4.875 3.20625 4.94979 2.89672 5.04125C2.14572 5.26314 1.01314 6.39572 0.79125 7.14672C0.663965 7.57738 0.625 12.4381 0.625 27.8578V48.0062L6.40314 53.7844L12.1813 59.5625H22.4739H32.7663L33.1019 59.2269C33.5459 58.7829 33.5459 58.1546 33.1019 57.7106L32.7663 57.375H23.2581H13.75V52.2419V47.1087L13.4144 46.7731L13.0788 46.4375H9.92188H6.7649L6.42939 46.7731C5.98533 47.2171 5.98533 47.8454 6.42939 48.2894C6.76012 48.6202 6.79908 48.625 9.16377 48.625H11.5625V52.213V55.8011L7.1875 51.4277L2.8125 47.0544V32.5272V18H31.25H59.6875V26.4144V34.8288L60.0231 35.1644C60.4671 35.6084 61.0954 35.6084 61.5394 35.1644L61.875 34.8288V21.2691C61.875 11.0226 61.8344 7.57191 61.7087 7.14672C61.4869 6.39572 60.3543 5.26314 59.6033 5.04125C59.2821 4.94637 58.2405 4.875 57.1765 4.875H55.3125V3.02314C55.3125 1.2391 55.3002 1.15885 54.9769 0.835645C54.7654 0.624004 54.4851 0.5 54.2188 0.5C53.9524 0.5 53.6721 0.624004 53.4606 0.835645ZM17.2295 22.5674C15.8501 23.1681 15.5243 25.0018 16.605 26.0825C17.4919 26.9693 18.7581 26.9693 19.645 26.0825C21.3419 24.3856 19.4329 21.6076 17.2295 22.5674ZM25.9795 22.5674C24.6001 23.1681 24.2743 25.0018 25.355 26.0825C26.2419 26.9693 27.5081 26.9693 28.395 26.0825C30.0919 24.3856 28.1829 21.6076 25.9795 22.5674ZM34.7295 22.5674C33.3501 23.1681 33.0243 25.0018 34.105 26.0825C34.9919 26.9693 36.2581 26.9693 37.145 26.0825C38.8419 24.3856 36.9328 21.6076 34.7295 22.5674ZM43.4795 22.5674C42.1001 23.1681 41.7743 25.0018 42.855 26.0825C43.7419 26.9693 45.0081 26.9693 45.895 26.0825C47.5919 24.3856 45.6828 21.6076 43.4795 22.5674ZM52.2295 22.5674C50.8501 23.1681 50.5243 25.0018 51.605 26.0825C52.4919 26.9693 53.7581 26.9693 54.645 26.0825C56.3419 24.3856 54.4328 21.6076 52.2295 22.5674ZM8.47949 31.3174C7.10014 31.9181 6.77434 33.7518 7.85496 34.8325C9.391 36.3686 11.9081 34.9928 11.504 32.838C11.2621 31.5492 9.72336 30.7755 8.47949 31.3174ZM17.2295 31.3174C15.8501 31.9181 15.5243 33.7518 16.605 34.8325C18.141 36.3686 20.6581 34.9928 20.254 32.838C20.0121 31.5492 18.4734 30.7755 17.2295 31.3174ZM25.9795 31.3174C24.6001 31.9181 24.2743 33.7518 25.355 34.8325C26.891 36.3686 29.4081 34.9928 29.004 32.838C28.7621 31.5492 27.2234 30.7755 25.9795 31.3174ZM34.7295 31.3174C33.3501 31.9181 33.0243 33.7518 34.105 34.8325C35.641 36.3686 38.1581 34.9928 37.754 32.838C37.5121 31.5492 35.9734 30.7755 34.7295 31.3174ZM8.47949 40.0674C7.10014 40.6681 6.77434 42.5018 7.85496 43.5825C9.391 45.1186 11.9081 43.7428 11.504 41.588C11.2621 40.2992 9.72336 39.5255 8.47949 40.0674ZM17.2295 40.0674C15.8501 40.6681 15.5243 42.5018 16.605 43.5825C18.141 45.1186 20.6581 43.7428 20.254 41.588C20.0121 40.2992 18.4734 39.5255 17.2295 40.0674ZM25.9795 40.0674C24.6001 40.6681 24.2743 42.5018 25.355 43.5825C26.891 45.1186 29.4081 43.7428 29.004 41.588C28.7621 40.2992 27.2234 39.5255 25.9795 40.0674ZM17.2295 48.8174C15.8501 49.4181 15.5243 51.2518 16.605 52.3325C18.141 53.8686 20.6581 52.4928 20.254 50.338C20.0121 49.0492 18.4734 48.2755 17.2295 48.8174ZM25.9795 48.8174C24.6001 49.4181 24.2743 51.2518 25.355 52.3325C26.891 53.8686 29.4081 52.4928 29.004 50.338C28.7621 49.0492 27.2234 48.2755 25.9795 48.8174Z" fill="#11295A"/>
<path d="M50.7639 40.7438C50.5317 40.9759 50.4862 41.131 50.4862 41.6898V42.3582L49.9866 42.549C48.3602 43.1701 47.4315 45.1192 47.9356 46.8536C48.0887 47.3801 48.2568 47.642 48.7695 48.1533C49.4165 48.7983 49.6451 48.9178 51.8217 49.7505C52.7769 50.1158 53.5383 50.7043 53.8593 51.325C54.4115 52.3929 53.9376 53.8479 52.8107 54.5446C52.3128 54.8524 52.165 54.8867 51.3433 54.8847C50.5685 54.8828 50.3393 54.8352 49.835 54.5713C49.508 54.4002 48.9855 54.0067 48.6742 53.6969C48.2447 53.2697 48.0253 53.1338 47.765 53.1338C47.3053 53.1338 46.8669 53.577 46.8669 54.0419C46.8669 54.8031 48.8332 56.3551 50.0983 56.5924L50.4862 56.6652V57.3364C50.4862 57.8982 50.5314 58.0528 50.7639 58.2851C50.9388 58.4602 51.1707 58.5628 51.391 58.5628C51.6114 58.5628 51.8432 58.4602 52.0182 58.2851C52.2518 58.0516 52.2959 57.899 52.2959 57.3237C52.2959 56.9476 52.3448 56.64 52.4047 56.64C52.803 56.64 53.8504 56.094 54.3791 55.6107C55.4606 54.6223 55.9968 53.3132 55.886 51.9322C55.7351 50.052 54.4097 48.7223 51.7348 47.7675C50.5934 47.3601 50.0649 47.0465 49.802 46.6213C49.518 46.1618 49.5221 45.6365 49.8144 45.0328C50.3578 43.9102 52.0474 43.7838 53.4835 44.7586C53.9416 45.0695 54.3925 45.053 54.7327 44.7126C55.102 44.3435 55.1 43.8256 54.7283 43.4538C54.4023 43.1278 53.2014 42.534 52.6634 42.4329C52.2978 42.3642 52.2959 42.3602 52.2959 41.6925C52.2959 41.1308 52.2506 40.9761 52.0182 40.7438C51.8432 40.5687 51.6114 40.4662 51.391 40.4662C51.1707 40.4662 50.9388 40.5687 50.7639 40.7438Z" fill="#0C5AE9"/>
<path d="M49.9207 35.1004C49.7652 35.1271 49.2816 35.2058 48.8462 35.2753C47.711 35.4562 45.9993 36.0246 45.7351 36.3082C45.4444 36.6202 45.448 37.0772 45.7441 37.4536C46.0419 37.8323 46.3846 37.836 47.4677 37.4724C51.9021 35.9839 56.9478 37.2037 60.3249 40.5806C64.0928 44.3486 65.1146 50.056 62.8711 54.8021C61.5862 57.5199 59.6253 59.5332 56.963 60.8681C50.7748 63.9709 43.1935 61.3811 40.0373 55.0864C37.9314 50.8862 38.4144 45.7188 41.2682 41.9189C41.9081 41.067 42.2495 40.7115 43.6233 39.4673C44.1302 39.0083 44.1884 38.4967 43.7776 38.1107C43.1951 37.5636 42.5221 37.9001 40.9479 39.5254C38.2063 42.3559 36.7565 46.2298 36.9556 50.1931C37.1429 53.9217 38.5362 57.0475 41.1971 59.7084C43.2967 61.8079 45.6578 63.0938 48.5634 63.7202C49.9077 64.0099 52.8744 64.0099 54.2186 63.7202C57.1243 63.0938 59.4854 61.8079 61.585 59.7084C63.6845 57.6088 64.9704 55.2477 65.5967 52.342C65.8865 50.9978 65.8865 48.0311 65.5967 46.6869C64.9696 43.7778 63.6821 41.4149 61.585 39.3244C59.4844 37.2305 57.2889 36.0129 54.4448 35.3645C53.5235 35.1545 50.5994 34.9838 49.9207 35.1004Z" fill="#0C5AE9"/>
</svg>
