<svg width="70" height="70" viewBox="0 0 70 70" fill="none" xmlns="http://www.w3.org/2000/svg">
<path d="M7.33564 34.1951C7.14984 34.3807 7 34.6908 7 34.8891C7 35.2909 7.66719 36.0469 8.0217 36.0469C8.35953 36.0469 9.00689 35.6748 9.1026 35.4256C9.38752 34.6832 8.85691 33.8594 8.09375 33.8594C7.82742 33.8594 7.54715 33.9834 7.33564 34.1951Z" fill="#0C5AE9"/>
<path d="M7.83029 38.5947C7.47072 39.0518 7.47072 39.4679 7.83029 39.925C8.04877 40.2029 8.23416 40.2852 8.64062 40.2852C9.04709 40.2852 9.23248 40.2029 9.45096 39.925C9.60682 39.7269 9.73438 39.4276 9.73438 39.2598C9.73438 39.0921 9.60682 38.7928 9.45096 38.5947C9.23248 38.3167 9.04709 38.2344 8.64062 38.2344C8.23416 38.2344 8.04877 38.3167 7.83029 38.5947Z" fill="#0C5AE9"/>
<path d="M9.36729 42.4737C8.7258 42.7322 8.56953 43.7337 9.09371 44.2263C9.66848 44.766 10.5548 44.5652 10.8084 43.8377C10.9849 43.3313 10.834 42.8616 10.3962 42.5549C10.0503 42.3126 9.81354 42.2939 9.36729 42.4737Z" fill="#0C5AE9"/>
<path d="M10.9383 46.7165C10.5905 47.0643 10.5365 47.2037 10.6075 47.571C10.7804 48.4663 11.7723 48.7871 12.4065 48.1527C12.9455 47.6139 12.842 46.8403 12.1855 46.5009C11.6263 46.2117 11.4048 46.25 10.9383 46.7165Z" fill="#0C5AE9"/>
<path d="M13.4671 50.1975C12.8152 50.6541 12.9947 51.7492 13.7696 52.0439C14.1807 52.2001 14.8833 51.9751 15.0693 51.6275C15.6242 50.5907 14.4289 49.5239 13.4671 50.1975Z" fill="#0C5AE9"/>
<path d="M16.4749 53.342C16.1156 53.5937 15.9526 54.253 16.1559 54.6326C16.7128 55.6733 18.2109 55.3477 18.2109 54.186C18.2109 53.3252 17.2003 52.834 16.4749 53.342Z" fill="#0C5AE9"/>
<path d="M53.1426 53.2987C52.4772 53.6883 52.3417 54.3678 52.8108 54.964C53.3702 55.6754 54.7148 55.2155 54.7148 54.3127C54.7148 53.5914 53.7288 52.9554 53.1426 53.2987Z" fill="#0C5AE9"/>
<path d="M55.9348 50.3919C55.4416 50.885 55.4192 51.3927 55.8708 51.8441C56.5322 52.5057 57.7287 52.0409 57.7183 51.1263C57.7134 50.6891 57.5117 50.38 57.0823 50.1513C56.6206 49.9054 56.3683 49.9584 55.9348 50.3919Z" fill="#0C5AE9"/>
<path d="M58.5311 46.6128C58.2586 46.822 57.9961 47.307 57.9961 47.6012C57.9961 47.9575 58.7511 48.6251 59.154 48.6251C59.6501 48.6251 60.1836 48.0584 60.1836 47.5313C60.1836 46.7131 59.1493 46.1382 58.5311 46.6128Z" fill="#0C5AE9"/>
<path d="M60.2458 42.8084C59.3182 43.7359 60.5664 45.2113 61.6414 44.4583C62.2511 44.0315 62.1466 42.9369 61.4667 42.6272C60.9481 42.3908 60.6136 42.4405 60.2458 42.8084Z" fill="#0C5AE9"/>
<path d="M61.7559 38.3963C61.0905 38.786 60.955 39.4655 61.424 40.0617C61.6425 40.3396 61.8279 40.4219 62.2344 40.4219C63.1846 40.4219 63.6461 39.4259 63.0205 38.7257C62.6516 38.3129 62.1302 38.177 61.7559 38.3963Z" fill="#0C5AE9"/>
<path d="M61.9847 34.3125C61.445 34.8873 61.6458 35.7736 62.3733 36.0273C63.1896 36.3118 63.9878 35.6413 63.8079 34.8222C63.6285 34.0056 62.5551 33.7055 61.9847 34.3125Z" fill="#0C5AE9"/>
<path d="M39.0605 5.85329C38.6423 6.08202 38.4453 6.39196 38.4453 6.82153C38.4453 7.35022 38.9941 7.88288 39.5391 7.88288C40.0661 7.88288 40.6328 7.3494 40.6328 6.85325C40.6328 6.43503 39.9584 5.69333 39.5838 5.69948C39.4464 5.7018 39.2109 5.77098 39.0605 5.85329Z" fill="#0C5AE9"/>
<path d="M34.406 5.75758C33.7277 6.43571 34.2083 7.60944 35.1641 7.60944C35.7261 7.60944 36.2578 7.07774 36.2578 6.51569C36.2578 5.95364 35.7261 5.42194 35.1641 5.42194C34.8977 5.42194 34.6175 5.54594 34.406 5.75758Z" fill="#0C5AE9"/>
<path d="M30.2735 5.92356C30.0625 6.00846 29.6953 6.69083 29.6953 6.9979C29.6953 7.35241 30.4514 8.0196 30.8532 8.0196C31.3493 8.0196 31.8828 7.4529 31.8828 6.92585C31.8828 6.15899 31.0216 5.62264 30.2735 5.92356Z" fill="#0C5AE9"/>
<path d="M33.3184 37.2815C31.4803 37.5653 28.9563 38.5665 27.3793 39.6375C26.4737 40.2524 24.5644 42.1375 23.8845 43.088C22.2145 45.4224 21.2188 48.5121 21.2188 51.3594C21.2188 53.601 21.9924 56.6933 22.6907 57.2426C23.3585 57.7679 24.3634 57.284 24.3631 56.437C24.3631 56.2387 24.2405 55.7536 24.0905 55.3592C23.9407 54.9647 23.7254 54.1108 23.6121 53.4614C22.9283 49.5399 24.1451 45.6882 26.9557 42.8777C31.6397 38.1936 39.1505 38.1642 43.8622 42.8114C47.1763 46.08 48.2643 50.7047 46.7973 55.2875C46.2744 56.9213 46.4866 57.5118 47.5964 57.5118C48.2113 57.5118 48.4956 57.1335 48.9515 55.7097C49.6636 53.4849 49.8244 51.3742 49.4549 49.1036C48.5435 43.504 44.3605 38.9704 38.7871 37.5416C37.5264 37.2183 34.6221 37.0803 33.3184 37.2815Z" fill="#0C5AE9"/>
<path fill-rule="evenodd" clip-rule="evenodd" d="M34.1548 42.7527C33.2896 42.9701 32.0584 43.6988 31.4606 44.3473C31.1537 44.6803 30.7077 45.3639 30.4698 45.8661C30.078 46.6931 30.0371 46.9027 30.0371 48.0853C30.0371 49.3178 30.0658 49.4492 30.5478 50.4243C31.1627 51.6687 31.9543 52.4438 33.2254 53.0459C34.0513 53.4372 34.2629 53.4786 35.4375 53.4786C36.612 53.4786 36.8237 53.4372 37.6496 53.0459C38.9207 52.4438 39.7123 51.6687 40.3272 50.4243C40.8097 49.4481 40.8379 49.3189 40.8379 48.0782C40.8379 46.8375 40.8097 46.7083 40.3272 45.7321C39.4034 43.8627 37.7621 42.7659 35.745 42.6699C35.1623 42.6421 34.4467 42.6794 34.1548 42.7527ZM38.7188 48.0782C38.7188 46.8142 37.622 45.3103 36.447 44.9632C35.1691 44.5856 34.1361 44.855 33.177 45.8162C32.4691 46.5256 32.1562 47.2189 32.1562 48.0782C32.1562 49.7723 33.7434 51.3594 35.4375 51.3594C37.1316 51.3594 38.7188 49.7723 38.7188 48.0782Z" fill="#0C5AE9"/>
<path fill-rule="evenodd" clip-rule="evenodd" d="M14.7246 4.46901C12.8866 4.75284 10.3626 5.75403 8.78555 6.82495C7.87992 7.43991 5.97064 9.32499 5.29074 10.2755C3.62072 12.6099 2.625 15.6996 2.625 18.5469C2.625 20.7641 3.3991 23.881 4.08338 24.4193C4.55711 24.792 5.02496 24.7727 5.43389 24.3636C5.84363 23.954 5.85936 23.5004 5.49678 22.5466C5.34693 22.1522 5.1316 21.2983 5.0184 20.6489C4.33453 16.7273 5.55133 12.8757 8.36199 10.0652C13.046 5.38106 20.5568 5.35167 25.2685 9.99887C28.5826 13.2675 29.6706 17.8922 28.2036 22.475C27.6806 24.1088 27.8928 24.6993 29.0027 24.6993C29.6175 24.6993 29.9019 24.321 30.3577 22.8972C31.0699 20.6724 31.2307 18.5617 30.8611 16.2911C29.9497 10.6915 25.7667 6.1579 20.1934 4.72905C18.9327 4.40585 16.0284 4.26776 14.7246 4.46901ZM51.9121 4.46901C50.0741 4.75284 47.5501 5.75403 45.973 6.82495C45.0674 7.43991 43.1581 9.32499 42.4782 10.2755C40.8082 12.6099 39.8125 15.6996 39.8125 18.5469C39.8125 20.7641 40.5866 23.881 41.2709 24.4193C41.7446 24.792 42.2125 24.7727 42.6214 24.3636C43.0311 23.954 43.0469 23.5004 42.6843 22.5466C42.5344 22.1522 42.3191 21.2983 42.2059 20.6489C41.522 16.7273 42.7388 12.8757 45.5495 10.0652C50.2335 5.38106 57.7443 5.35167 62.456 9.99887C65.7701 13.2675 66.8581 17.8922 65.3911 22.475C64.8681 24.1088 65.0803 24.6993 66.1902 24.6993C66.805 24.6993 67.0894 24.321 67.5452 22.8972C68.2574 20.6724 68.4182 18.5617 68.0486 16.2911C67.1372 10.6915 62.9542 6.1579 57.3809 4.72905C56.1202 4.40585 53.2159 4.26776 51.9121 4.46901ZM15.5611 9.94022C14.6959 10.1576 13.4646 10.8863 12.8669 11.5348C12.5599 11.8678 12.114 12.5514 11.8761 13.0536C11.4842 13.8806 11.4434 14.0902 11.4434 15.2728C11.4434 16.5053 11.4721 16.6367 11.954 17.6118C12.569 18.8562 13.3606 19.6313 14.6316 20.2334C15.4576 20.6247 15.6692 20.6661 16.8438 20.6661C18.0183 20.6661 18.2299 20.6247 19.0559 20.2334C20.3269 19.6313 21.1185 18.8562 21.7335 17.6118C22.216 16.6356 22.2441 16.5064 22.2441 15.2657C22.2441 14.025 22.216 13.8958 21.7335 12.9196C20.8097 11.0502 19.1684 9.95335 17.1512 9.85737C16.5685 9.82962 15.8529 9.86694 15.5611 9.94022ZM52.7486 9.94022C51.8834 10.1576 50.6521 10.8863 50.0544 11.5348C49.7474 11.8678 49.3015 12.5514 49.0636 13.0536C48.6717 13.8806 48.6309 14.0902 48.6309 15.2728C48.6309 16.5053 48.6596 16.6367 49.1415 17.6118C49.7565 18.8562 50.5481 19.6313 51.8191 20.2334C52.6451 20.6247 52.8567 20.6661 54.0312 20.6661C55.2058 20.6661 55.4174 20.6247 56.2434 20.2334C57.5144 19.6313 58.306 18.8562 58.921 17.6118C59.4035 16.6356 59.4316 16.5064 59.4316 15.2657C59.4316 14.025 59.4035 13.8958 58.921 12.9196C57.9972 11.0502 56.3559 9.95335 54.3387 9.85737C53.756 9.82962 53.0405 9.86694 52.7486 9.94022ZM17.8533 12.1507C18.6043 12.3726 19.7369 13.5052 19.9587 14.2562C20.3375 15.538 20.0704 16.56 19.1043 17.5262C17.7211 18.9094 15.9664 18.9094 14.5832 17.5262C13.2001 16.143 13.2001 14.3899 14.5832 13.0037C15.5423 12.0425 16.5754 11.7731 17.8533 12.1507ZM55.0408 12.1507C56.2157 12.4978 57.3125 14.0017 57.3125 15.2657C57.3125 16.9598 55.7253 18.5469 54.0312 18.5469C52.3372 18.5469 50.75 16.9598 50.75 15.2657C50.75 14.4064 51.0628 13.7131 51.7707 13.0037C52.7298 12.0425 53.7629 11.7731 55.0408 12.1507ZM12.127 23.0592C11.3091 23.2341 10.4329 23.5708 9.73889 23.977C8.23156 24.8591 6.58984 26.8794 6.58984 27.8522C6.58984 28.311 6.68896 28.4566 7.52896 29.2323C9.06664 30.6523 11.1057 31.7218 13.5369 32.3838C15.1296 32.8174 18.4965 32.812 20.1749 32.3733C22.6882 31.7164 24.7751 30.5901 26.4461 28.9887C27.3003 28.17 27.325 27.6884 26.5718 26.532C25.6102 25.0553 24.1988 23.9352 22.5066 23.3057C21.7403 23.0207 21.4575 23.0029 17.1855 22.9733C14.7041 22.9563 12.4277 22.9948 12.127 23.0592ZM49.3145 23.0592C48.4966 23.2341 47.6204 23.5708 46.9264 23.977C45.4191 24.8591 43.7773 26.8794 43.7773 27.8522C43.7773 28.311 43.8765 28.4566 44.7165 29.2323C46.2541 30.6523 48.2932 31.7218 50.7244 32.3838C52.3171 32.8174 55.684 32.812 57.3624 32.3733C59.8757 31.7164 61.9626 30.5901 63.6336 28.9887C64.4878 28.17 64.5125 27.6884 63.7593 26.532C62.7977 25.0553 61.3863 23.9352 59.6941 23.3057C58.9278 23.0207 58.645 23.0029 54.373 22.9733C51.8916 22.9563 49.6152 22.9948 49.3145 23.0592ZM22.3454 25.6143C23.3019 26.0674 24.7018 27.304 24.6024 27.6082C24.5068 27.9006 23.2392 28.7832 22.1074 29.3455C20.3196 30.2337 19.1583 30.4851 16.8438 30.4851C14.5292 30.4851 13.3679 30.2337 11.5801 29.3455C10.4483 28.7832 9.18066 27.9006 9.0851 27.6082C9.05502 27.5162 9.33461 27.1368 9.70635 26.7651C10.414 26.0574 11.4283 25.4656 12.2973 25.2535C12.5796 25.1846 14.7485 25.1394 17.1172 25.1531L21.4238 25.1778L22.3454 25.6143ZM59.533 25.6143C60.4894 26.0674 61.8893 27.304 61.7899 27.6082C61.6943 27.9006 60.4267 28.7832 59.2949 29.3455C57.507 30.2337 56.3458 30.4851 54.0312 30.4851C51.7167 30.4851 50.5555 30.2337 48.7676 29.3455C47.6358 28.7832 46.3682 27.9006 46.2726 27.6082C46.2425 27.5162 46.5221 27.1368 46.8939 26.7651C47.6015 26.0574 48.6158 25.4656 49.4848 25.2535C49.7671 25.1846 51.936 25.1394 54.3047 25.1531L58.6113 25.1778L59.533 25.6143Z" fill="#11295A"/>
<path fill-rule="evenodd" clip-rule="evenodd" d="M30.7207 55.8717C29.9029 56.0466 29.0266 56.3833 28.3326 56.7895C26.8253 57.6716 25.1836 59.6919 25.1836 60.6647C25.1836 61.1235 25.2827 61.2691 26.1227 62.0448C27.6604 63.4648 29.6994 64.5343 32.1307 65.1963C33.7233 65.6299 37.0903 65.6245 38.7687 65.1858C41.282 64.5289 43.3688 63.4026 45.0398 61.8012C45.894 60.9825 45.9188 60.5009 45.1656 59.3445C44.2039 57.8678 42.7926 56.7477 41.1004 56.1182C40.3341 55.8332 40.0512 55.8154 35.7793 55.7859C33.2979 55.7688 31.0215 55.8073 30.7207 55.8717ZM43.1962 60.4208C43.2955 60.1166 41.8957 58.8799 40.9392 58.4268L40.0176 57.9903L35.7109 57.9656C33.3423 57.9519 31.1734 57.9971 30.8911 58.066C30.0221 58.2781 29.0078 58.87 28.3001 59.5776C27.9284 59.9493 27.6488 60.3287 27.6788 60.4208C27.7744 60.7131 29.0421 61.5957 30.1738 62.158C31.9617 63.0462 33.123 63.2976 35.4375 63.2976C37.752 63.2976 38.9133 63.0462 40.7012 62.158C41.8329 61.5957 43.1006 60.7131 43.1962 60.4208Z" fill="#0C5AE9"/>
</svg>
