<svg width="80" height="80" viewBox="0 0 80 80" fill="none" xmlns="http://www.w3.org/2000/svg">
<path d="M8.35406 8.35406L3 13.7081V32.9706V52.233L3.38359 52.6164L3.76703 53H13H22.233L22.6164 52.6164C23.1239 52.1091 23.1239 51.3909 22.6164 50.8836L22.233 50.5H13.8664H5.5V33V15.5H10.1164H14.733L15.1164 15.1164C15.4898 14.7431 15.5 14.6702 15.5 12.375C15.5 10.0798 15.4898 10.0069 15.1164 9.63359C14.6091 9.12609 13.8909 9.12609 13.3836 9.63359C13.0298 9.98719 13 10.1333 13 11.5086V13H10.1497H7.29937L11.0469 9.25L14.7944 5.5H27.6472H40.5V15.1164V24.733L40.8836 25.1164C41.3909 25.6239 42.1091 25.6239 42.6164 25.1164L43 24.733V14.25V3.76703L42.6164 3.38359L42.233 3H27.9706H13.7081L8.35406 8.35406Z" fill="#0C5AE9"/>
<path d="M10.8836 23.3836C10.6417 23.6253 10.5 23.9456 10.5 24.25C10.5 24.5544 10.6417 24.8747 10.8836 25.1164L11.267 25.5H23H34.733L35.1164 25.1164C35.6239 24.6091 35.6239 23.8909 35.1164 23.3836L34.733 23H23H11.267L10.8836 23.3836Z" fill="#0C5AE9"/>
<path d="M10.8836 28.3836C10.6417 28.6253 10.5 28.9456 10.5 29.25C10.5 29.5544 10.6417 29.8747 10.8836 30.1164L11.267 30.5H16.75H22.233L22.6164 30.1164C22.8583 29.8747 23 29.5544 23 29.25C23 28.9456 22.8583 28.6253 22.6164 28.3836L22.233 28H16.75H11.267L10.8836 28.3836Z" fill="#0C5AE9"/>
<path d="M10.8836 18.3836C10.6417 18.6253 10.5 18.9456 10.5 19.25C10.5 19.5544 10.6417 19.8747 10.8836 20.1164L11.267 20.5H15.5H19.733L20.1164 20.1164C20.6239 19.6091 20.6239 18.8909 20.1164 18.3836L19.733 18H15.5H11.267L10.8836 18.3836Z" fill="#0C5AE9"/>
<path d="M23.3836 18.3836C23.1417 18.6253 23 18.9456 23 19.25C23 19.5544 23.1417 19.8747 23.3836 20.1164L23.767 20.5H29.25H34.733L35.1164 20.1164C35.3583 19.8747 35.5 19.5544 35.5 19.25C35.5 18.9456 35.3583 18.6253 35.1164 18.3836L34.733 18H29.25H23.767L23.3836 18.3836Z" fill="#0C5AE9"/>
<path fill-rule="evenodd" clip-rule="evenodd" d="M45.8836 23.3836C45.6417 23.6253 45.5 23.9456 45.5 24.25C45.5 24.5544 45.6417 24.8747 45.8836 25.1164L46.267 25.5H58H69.733L70.1164 25.8836L70.5 26.267V46.75V67.233L70.8836 67.6164C71.3909 68.1239 72.1091 68.1239 72.6164 67.6164L73 67.233V46.7361C73 31.1 72.955 26.0869 72.81 25.5962C72.5564 24.738 71.262 23.4436 70.4037 23.19C69.9237 23.0483 66.78 23 58.0139 23H46.267L45.8836 23.3836ZM40.8836 28.3836C40.5144 28.7527 40.5 28.8459 40.5 30.8642V32.9613L38.1953 33.0416C35.0869 33.1495 33.3383 33.6473 31.2288 35.0245C28.5386 36.7806 26.8245 39.1731 25.8522 42.5289C25.6583 43.1984 25.5883 44.3737 25.5386 47.7991L25.4747 52.2077L25.8709 52.6037C26.3911 53.1241 27.1037 53.1292 27.6164 52.6164L28 52.233L28.0027 48.3586C28.0059 43.8284 28.1427 42.9303 29.1277 40.9688C30.2786 38.6766 32.535 36.7553 35.0312 35.942C35.8739 35.6675 36.5881 35.5952 39.2252 35.5166L39.6459 35.5043L39.6694 35.5036L39.6735 35.5035C41.6067 35.4479 42.4185 35.4246 42.7583 35.0122C43.0042 34.7138 43.0029 34.2115 43.0005 33.3456C43.0003 33.2571 43 33.1649 43 33.0686V31.453L47.37 34.0623C49.7734 35.4977 51.74 36.707 51.74 36.75C51.74 36.793 49.7734 38.0023 47.37 39.4377L43 42.047V40.407C43 38.8742 42.975 38.742 42.6164 38.3836C42.2553 38.0225 42.1316 38 40.5 38C38.8684 38 38.7447 38.0225 38.3836 38.3836C37.8761 38.8909 37.8761 39.6091 38.3836 40.1164C38.6984 40.4314 38.9219 40.5 39.6336 40.5H40.5V42.6164C40.5 44.6553 40.5141 44.747 40.8836 45.1164C41.1133 45.3463 41.4422 45.4975 41.7039 45.4937C41.9902 45.4897 44.4009 44.1278 48.7022 41.5405C55.6953 37.3337 55.7505 37.2908 55.412 36.3283C55.2928 35.9892 53.9798 35.1344 48.7022 31.9595C44.4009 29.3722 41.9902 28.0103 41.7039 28.0062C41.4422 28.0025 41.1133 28.1538 40.8836 28.3836ZM56.1114 43.2003C55.5505 43.6309 55.5 44.0183 55.5 47.8866C55.5 51.1705 55.4572 51.8673 55.1919 52.9048C54.4728 55.7162 52.5338 58.1484 50.0259 59.3847C48.2006 60.2845 47.0458 60.4941 43.8914 60.4973C41.315 60.5 41.26 60.507 40.8836 60.8836C40.5272 61.2398 40.5 61.3784 40.5 62.8367C40.5 63.7 40.4592 64.4062 40.4092 64.4062C40.2287 64.4062 31.9062 59.3595 31.9062 59.25C31.9062 59.1405 40.2287 54.0938 40.4092 54.0938C40.4592 54.0938 40.5 54.8 40.5 55.6633C40.5 57.1216 40.5272 57.2602 40.8836 57.6164C41.2447 57.9775 41.3684 58 43 58C44.6316 58 44.7553 57.9775 45.1164 57.6164C45.3583 57.3747 45.5 57.0544 45.5 56.75C45.5 55.9522 44.9091 55.5 43.8664 55.5H43V53.3836C43 51.3447 42.9859 51.253 42.6164 50.8836C42.4025 50.6697 42.0502 50.5 41.8195 50.5C41.557 50.5 39.0222 51.9319 34.8702 54.4258C27.8189 58.6611 27.7428 58.7208 28.1481 59.6989C28.2984 60.0619 29.5662 60.8881 34.7655 64.0116C38.3028 66.1364 41.4217 67.9116 41.6964 67.9561C42.0898 68.02 42.2811 67.9517 42.598 67.635C42.9903 67.2427 43 67.1819 43 65.1164V63L44.8359 62.998C47.2145 62.9953 49.1506 62.6011 50.868 61.7698C53.4644 60.5131 55.5191 58.4628 56.748 55.9028C57.8242 53.6603 57.8841 53.2833 57.9584 48.2789L58.025 43.792L57.6289 43.3961C57.2008 42.9678 56.5273 42.8809 56.1114 43.2003ZM8.38359 55.8836L8 56.267V61.75V67.233L8.38359 67.6164C8.62531 67.8583 8.94562 68 9.25 68C9.55438 68 9.87469 67.8583 10.1164 67.6164L10.5 67.233V61.75V56.267L10.1164 55.8836C9.87469 55.6417 9.55438 55.5 9.25 55.5C8.94562 55.5 8.62531 55.6417 8.38359 55.8836ZM3.36219 70.9048C2.98422 71.283 2.96375 71.3772 3.05313 72.3347C3.255 74.4955 4.55203 76.3417 6.56875 77.3383L7.74937 77.9219H40.5H73.2506L74.4313 77.3383C76.448 76.3417 77.745 74.4955 77.9469 72.3347C78.0363 71.3772 78.0158 71.283 77.6378 70.9048L77.233 70.5H63H48.767L48.3836 70.8836C47.8761 71.3909 47.8761 72.1091 48.3836 72.6164L48.767 73H61.9773C73.8602 73 75.1875 73.0245 75.1875 73.2445C75.1875 73.6702 73.6027 75.1034 72.9037 75.31C71.9688 75.5863 9.03125 75.5863 8.09625 75.31C7.39734 75.1034 5.8125 73.6702 5.8125 73.2445C5.8125 73.0245 7.13984 73 19.0227 73H32.233L32.6164 72.6164C33.1239 72.1091 33.1239 71.3909 32.6164 70.8836L32.233 70.5H18H3.76703L3.36219 70.9048Z" fill="#11295A"/>
<path d="M18.3836 13.3836C18.1417 13.6253 18 13.9456 18 14.25C18 14.5544 18.1417 14.8747 18.3836 15.1164L18.767 15.5H26.75H34.733L35.1164 15.1164C35.3583 14.8747 35.5 14.5544 35.5 14.25C35.5 13.9456 35.3583 13.6253 35.1164 13.3836L34.733 13H26.75H18.767L18.3836 13.3836Z" fill="#0C5AE9"/>
</svg>
