<svg width="132" height="78" viewBox="0 0 132 78" fill="none" xmlns="http://www.w3.org/2000/svg">
<path d="M60.2217 49.8518C60.2193 49.8518 60.5847 49.7416 61.3178 49.5211C61.3524 49.5115 61.3745 49.5235 61.3841 49.5571C61.7112 50.6773 62.0551 51.6832 62.4157 52.5746C63.39 54.9739 64.7083 57.4775 66.2575 59.627C67.8491 61.834 69.4832 63.7163 71.1596 65.2739C72.6402 66.6494 74.4647 68.0266 76.633 69.4057C77.6456 70.0491 78.6951 70.6189 79.7817 71.1149C83.0557 72.6078 86.1936 73.6142 89.1954 74.1342C90.713 74.3966 92.5942 74.5506 94.839 74.5961C96.5895 74.6309 98.6438 74.4458 101.002 74.0408C104.255 73.4836 107.307 72.5095 110.16 71.1185C113.924 69.2829 117.233 66.9189 120.086 64.0266C121.589 62.5013 122.905 60.8952 124.035 59.2082C125.137 57.5631 126.148 55.7389 127.069 53.7356C127.932 51.8545 128.659 49.6906 129.25 47.244C129.533 46.0698 129.749 44.8369 129.897 43.5453C130.632 37.1076 129.697 30.9407 127.09 25.0446C126.326 23.3144 125.366 21.5543 124.209 19.7643C123.383 18.4871 122.273 17.0654 120.877 15.4995C120.121 14.653 119.305 13.9448 118.481 13.1792C118.035 12.7647 117.552 12.3549 117.032 11.9499C116.358 11.4269 115.719 10.9003 115.013 10.4205C113.46 9.36609 111.875 8.44171 110.258 7.64733C108.245 6.66005 106.163 5.88724 104.013 5.3289C101.116 4.57646 98.2336 4.17568 95.3656 4.12655C94.0939 4.10379 92.7035 4.17148 91.1942 4.32964C89.9847 4.45664 88.8575 4.63637 87.8127 4.86881C85.088 5.47508 82.445 6.3701 79.8838 7.55388C76.5739 9.08332 73.3859 11.3407 70.839 13.7759C68.5954 15.9194 66.6945 18.2534 65.1363 20.7779C64.0569 22.5272 63.1351 24.3634 62.3709 26.2865C62.0223 27.1647 61.6963 28.1214 61.393 29.1566C61.3908 29.1648 61.387 29.1724 61.3817 29.179C61.3764 29.1856 61.3698 29.1911 61.3623 29.1951C61.3548 29.1991 61.3465 29.2016 61.3379 29.2024C61.3294 29.2032 61.3207 29.2023 61.3124 29.1998L60.2235 28.8655C60.19 28.8547 60.1793 28.8325 60.1912 28.799C60.6497 27.5409 61.0402 26.2289 61.5954 24.9781C62.2091 23.599 62.8945 22.2391 63.6515 20.8983C64.0038 20.2729 64.3566 19.7068 64.71 19.2C65.2205 18.4649 65.7059 17.7244 66.2665 17.0289C67.0032 16.1135 67.682 15.3221 68.3029 14.6548C70.4414 12.3555 72.6468 10.4606 74.919 8.9701C80.9321 5.02816 87.5966 3.00747 94.9124 2.90803C96.7668 2.88286 98.8533 3.06738 101.172 3.46157C104.207 3.97798 107.256 4.92572 110.319 6.3048C111.696 6.92485 113.109 7.71024 114.41 8.55134C116.152 9.68001 117.658 10.8027 118.929 11.9194C119.878 12.7533 120.93 13.8083 122.084 15.0843C122.917 16.0033 123.666 16.9223 124.334 17.8413C126.469 20.7803 128.135 23.9554 129.331 27.3666C129.943 29.1111 130.441 31.0881 130.823 33.2975C131.379 36.5241 131.503 39.6429 131.194 42.6539C130.875 45.7535 130.262 48.6381 129.354 51.3076C128.98 52.4075 128.503 53.5972 127.998 54.654C126.514 57.7542 124.714 60.6927 122.414 63.2771C121.303 64.5244 120.13 65.7076 118.893 66.8267C118.263 67.3958 117.375 68.0967 116.226 68.9295C114.4 70.2522 112.56 71.3521 110.706 72.2292C106.278 74.3248 101.564 75.5073 96.562 75.7769C95.4074 75.838 94.2294 75.8302 93.0282 75.7536C86.4097 75.3258 80.4235 73.3554 75.0694 69.8424C71.3262 67.385 68.0456 64.1997 65.2277 60.2865C63.6659 58.1173 62.3799 55.5994 61.3106 53.0671C61.079 52.5171 60.7065 51.4633 60.193 49.9057C60.1835 49.8782 60.193 49.8602 60.2217 49.8518Z" fill="#11295A"/>
<path d="M17.774 30.2413L16.402 30.2389C16.3704 30.2388 16.3447 30.2645 16.3446 30.2963L16.3423 31.6622C16.3422 31.6939 16.3678 31.7197 16.3995 31.7198L17.7714 31.7222C17.8031 31.7222 17.8288 31.6965 17.8288 31.6648L17.8312 30.2989C17.8312 30.2671 17.8056 30.2413 17.774 30.2413Z" fill="#11295A"/>
<path d="M59.3658 42.7743L61.164 42.7761C61.1754 42.7761 61.1863 42.7807 61.1944 42.7888C61.2024 42.7968 61.207 42.8078 61.207 42.8193V44.2499C61.207 44.2786 61.1926 44.2936 61.164 44.2948C59.7222 44.3523 58.2249 44.4907 57.4494 43.0367C57.2858 42.7288 57.2064 42.1818 57.2111 41.3958C57.235 37.7654 57.2362 34.0637 57.2147 30.2907C57.2147 30.2769 57.2202 30.2637 57.2299 30.2539C57.2397 30.2441 57.2529 30.2386 57.2667 30.2386L58.6601 30.2368C58.6664 30.2368 58.6727 30.2381 58.6786 30.2406C58.6845 30.2432 58.6898 30.2469 58.6943 30.2516C58.6988 30.2562 58.7023 30.2618 58.7048 30.2679C58.7072 30.274 58.7085 30.2805 58.7085 30.2871L58.7102 42.1165C58.7102 42.2907 58.7793 42.4577 58.9021 42.581C59.025 42.7043 59.1917 42.7739 59.3658 42.7743Z" fill="#11295A"/>
<path d="M13.7772 37.4991C14.1945 37.9395 14.4435 38.502 14.4345 39.1131C14.4202 39.9865 14.422 40.8905 14.4399 41.8251C14.4494 42.3439 14.3617 42.7734 14.1766 43.1137C13.6661 44.0572 12.7652 44.3125 11.6942 44.3107C8.25181 44.3035 4.81778 44.3005 1.39211 44.3017C1.37928 44.3017 1.36698 44.2966 1.35791 44.2875C1.34884 44.2784 1.34375 44.266 1.34375 44.2531V31.2304C1.34375 31.1657 1.37599 31.1333 1.44047 31.1333C4.45539 31.1393 7.73957 31.1375 11.293 31.1279C12.3676 31.1261 13.2005 31.4425 13.6697 32.4381C13.8357 32.7904 13.9073 33.3751 13.8846 34.1922C13.8614 35.0585 14.0118 36.1943 13.6823 36.9905C13.6475 37.0751 13.6379 37.1681 13.6548 37.2583C13.6716 37.3486 13.7141 37.4322 13.7772 37.4991ZM12.3766 33.3547C12.3766 33.2582 12.3576 33.1626 12.3208 33.0734C12.284 32.9842 12.2301 32.9032 12.162 32.8349C12.094 32.7667 12.0133 32.7125 11.9244 32.6756C11.8355 32.6387 11.7402 32.6196 11.644 32.6196H3.55211C3.45591 32.6196 3.36065 32.6387 3.27178 32.6756C3.1829 32.7125 3.10215 32.7667 3.03413 32.8349C2.9661 32.9032 2.91215 32.9842 2.87533 33.0734C2.83852 33.1626 2.81957 33.2582 2.81957 33.3547V36.1081C2.81957 36.303 2.89675 36.49 3.03413 36.6278C3.1715 36.7657 3.35783 36.8431 3.55211 36.8431H11.644C11.8383 36.8431 12.0247 36.7657 12.162 36.6278C12.2994 36.49 12.3766 36.303 12.3766 36.1081V33.3547ZM12.9623 39.0861C12.9623 38.884 12.8822 38.6902 12.7398 38.5473C12.5974 38.4044 12.4043 38.3241 12.2029 38.3241H3.57718C3.37578 38.3241 3.18262 38.4044 3.0402 38.5473C2.89779 38.6902 2.81778 38.884 2.81778 39.0861V42.0551C2.81778 42.2572 2.89779 42.4511 3.0402 42.594C3.18262 42.7369 3.37578 42.8172 3.57718 42.8172H12.2029C12.4043 42.8172 12.5974 42.7369 12.7398 42.594C12.8822 42.4511 12.9623 42.2572 12.9623 42.0551V39.0861Z" fill="#11295A"/>
<path d="M80.0635 31.2379C80.0635 31.2103 80.0744 31.1838 80.0939 31.1642C80.1134 31.1447 80.1398 31.1337 80.1674 31.1337L90.7363 31.1157C91.3866 31.1148 92.0106 31.3759 92.4711 31.8417C92.9316 32.3075 93.1909 32.9398 93.1918 33.5995L93.2062 41.8129C93.2066 42.1395 93.1437 42.4631 93.0209 42.765C92.8981 43.067 92.7179 43.3415 92.4906 43.5728C92.2632 43.8041 91.9932 43.9877 91.6959 44.1131C91.3986 44.2386 91.0798 44.3034 90.7578 44.3038L80.1889 44.3218C80.1752 44.3218 80.1617 44.3191 80.1491 44.3139C80.1365 44.3086 80.125 44.301 80.1154 44.2913C80.1058 44.2816 80.0981 44.2701 80.0929 44.2575C80.0877 44.2448 80.085 44.2313 80.085 44.2176L80.0635 31.2379ZM91.6941 33.3821C91.694 33.2809 91.6739 33.1807 91.6351 33.0872C91.5964 32.9937 91.5396 32.9088 91.4681 32.8374C91.3967 32.7659 91.3119 32.7092 91.2186 32.6707C91.1253 32.6321 91.0253 32.6123 90.9244 32.6125L82.3095 32.6276C82.2086 32.6277 82.1088 32.6479 82.0156 32.6868C81.9225 32.7257 81.8378 32.7826 81.7666 32.8543C81.6954 32.9261 81.6389 33.0112 81.6005 33.1048C81.562 33.1984 81.5423 33.2987 81.5425 33.3999L81.5576 42.0554C81.5578 42.1566 81.5778 42.2569 81.6166 42.3503C81.6554 42.4438 81.7121 42.5287 81.7836 42.6002C81.8551 42.6717 81.9399 42.7283 82.0331 42.7669C82.1264 42.8055 82.2264 42.8252 82.3273 42.8251L90.9422 42.81C91.0431 42.8098 91.143 42.7897 91.2361 42.7508C91.3293 42.7119 91.4139 42.6549 91.4851 42.5832C91.5563 42.5115 91.6128 42.4264 91.6512 42.3328C91.6897 42.2392 91.7094 42.1389 91.7092 42.0376L91.6941 33.3821Z" fill="#11295A"/>
<path d="M17.7748 33.6982H16.3993C16.3686 33.6982 16.3438 33.7232 16.3438 33.754V44.2462C16.3438 44.277 16.3686 44.3019 16.3993 44.3019H17.7748C17.8055 44.3019 17.8303 44.277 17.8303 44.2462V33.754C17.8303 33.7232 17.8055 33.6982 17.7748 33.6982Z" fill="#11295A"/>
<path d="M21.3281 41.9545C21.3299 42.2816 21.4983 42.774 21.9102 42.774C24.8368 42.774 27.712 42.774 30.5359 42.774C30.5669 42.774 30.5824 42.7902 30.5824 42.8225L30.5807 44.2585C30.5807 44.2909 30.5645 44.3071 30.5323 44.3071C28.1215 44.2927 25.5633 44.2945 22.8577 44.3124C21.998 44.3184 21.3944 44.2274 21.0469 44.0393C20.1711 43.563 19.8165 42.7902 19.8272 41.8089C19.8463 40.0081 19.8445 38.2354 19.8218 36.4909C19.8135 35.8091 19.8989 35.2939 20.078 34.9453C20.6099 33.91 21.4463 33.6746 22.5711 33.6818C25.4535 33.7034 28.0911 33.7064 30.4839 33.6908C30.521 33.6908 30.5395 33.7094 30.5395 33.7465L30.543 35.1789C30.543 35.1913 30.5379 35.2032 30.5289 35.2119C30.5198 35.2207 30.5075 35.2256 30.4947 35.2256H22.0284C21.8419 35.2256 21.6629 35.2999 21.5307 35.4323C21.3985 35.5646 21.3237 35.7443 21.3227 35.9319C21.3156 38.0766 21.3174 40.0841 21.3281 41.9545Z" fill="#11295A"/>
<path d="M46.1317 35.5959C46.084 35.6798 46.0601 35.7696 46.0601 35.8655L46.0619 42.1378C46.0619 42.3066 46.1285 42.4684 46.2471 42.5877C46.3656 42.707 46.5264 42.7741 46.6941 42.7741H55.2607C55.274 42.7741 55.2868 42.7795 55.2962 42.7893C55.3056 42.7991 55.3108 42.8123 55.3108 42.8262L55.3037 44.2532C55.3037 44.2891 55.2858 44.3071 55.25 44.3071C53.1079 44.2939 50.4923 44.2957 47.4034 44.3125C46.6798 44.3161 46.1341 44.2196 45.7664 44.0231C44.7186 43.4642 44.5252 42.5494 44.5431 41.4171C44.5682 39.9039 44.5694 38.3049 44.5467 36.6203C44.5371 35.8643 44.6189 35.3173 44.792 34.9794C45.2864 34.0143 46.044 33.6836 47.072 33.689C49.7717 33.7022 52.4888 33.704 55.2231 33.6944C55.2297 33.6944 55.2362 33.6957 55.2423 33.6981C55.2484 33.7006 55.2539 33.7041 55.2585 33.7086C55.2632 33.7131 55.2669 33.7185 55.2694 33.7244C55.2719 33.7303 55.2732 33.7366 55.2732 33.7429L55.2804 35.17C55.2804 35.2059 55.2625 35.2239 55.2267 35.2239C52.1843 35.2263 49.3813 35.2263 46.8177 35.2239C46.5049 35.2227 46.2762 35.3467 46.1317 35.5959Z" fill="#11295A"/>
<path d="M63.9131 39.8231L63.9184 42.1343C63.9189 42.3041 63.9863 42.4669 64.1058 42.5868C64.2253 42.7068 64.3873 42.7741 64.556 42.7741H73.119C73.1309 42.7741 73.1423 42.7788 73.1507 42.7873C73.1591 42.7957 73.1638 42.8071 73.1638 42.819V44.2532C73.1638 44.2601 73.1625 44.2669 73.1599 44.2732C73.1572 44.2795 73.1534 44.2852 73.1486 44.2901C73.1438 44.2949 73.138 44.2988 73.1317 44.3014C73.1254 44.304 73.1187 44.3054 73.1119 44.3054C70.6259 44.2958 67.9829 44.2976 65.1829 44.3107C64.5405 44.3143 64.0366 44.2263 63.6713 44.0466C62.7722 43.6008 62.4068 42.7813 62.4122 41.8108C62.4205 39.8758 62.4211 38.0126 62.414 36.2214C62.4086 34.6524 63.3543 33.6657 64.9232 33.6873C66.5447 33.7101 68.3083 33.7095 70.214 33.6855C71.5375 33.6693 72.3972 33.8562 72.9543 35.0262C73.1095 35.3521 73.1823 35.808 73.1728 36.3939C73.1549 37.5765 73.1549 38.6495 73.1728 39.6128C73.174 39.6835 73.1399 39.7188 73.0707 39.7188H64.0152C63.9471 39.7188 63.9131 39.7536 63.9131 39.8231ZM63.9166 38.1714C63.9166 38.1886 63.9234 38.205 63.9355 38.2171C63.9476 38.2293 63.964 38.2361 63.9811 38.2361H71.5178C71.5895 38.2361 71.6271 38.2001 71.6307 38.1283C71.6522 37.6083 71.6623 37.0649 71.6611 36.4982C71.6611 35.8458 71.6808 35.2275 70.9268 35.2275C68.842 35.2251 66.7298 35.2251 64.5901 35.2275C64.5016 35.2275 64.4141 35.245 64.3324 35.279C64.2507 35.3129 64.1764 35.3627 64.1139 35.4254C64.0514 35.4882 64.0018 35.5627 63.9679 35.6447C63.9341 35.7267 63.9166 35.8145 63.9166 35.9033V38.1714Z" fill="#11295A"/>
<path d="M96.6128 39.8394L96.6163 42.1399C96.6168 42.3083 96.6836 42.4696 96.8022 42.5886C96.9207 42.7075 97.0812 42.7743 97.2486 42.7743H105.812C105.825 42.7743 105.838 42.7796 105.847 42.789C105.856 42.7985 105.862 42.8113 105.862 42.8246L105.865 44.2534C105.865 44.2605 105.864 44.2675 105.861 44.274C105.859 44.2806 105.855 44.2865 105.85 44.2915C105.845 44.2965 105.839 44.3005 105.832 44.3032C105.826 44.3059 105.819 44.3073 105.812 44.3073C103.291 44.2953 100.684 44.2971 97.9919 44.3127C97.248 44.3175 96.7101 44.233 96.3781 44.0593C95.2856 43.4896 95.076 42.5676 95.0993 41.4317C95.128 39.9341 95.1292 38.4322 95.1029 36.9261C95.0862 36.0167 95.1513 35.4014 95.2981 35.0803C95.7978 33.9876 96.6253 33.6749 97.7501 33.6875C99.5471 33.709 101.357 33.709 103.179 33.6875C103.789 33.6803 104.262 33.7593 104.599 33.9247C105.458 34.3488 105.881 35.1223 105.871 36.2449C105.86 37.4059 105.858 38.5292 105.865 39.6147C105.865 39.6842 105.831 39.719 105.761 39.719H96.731C96.6522 39.719 96.6128 39.7591 96.6128 39.8394ZM96.6772 38.2291L104.289 38.2435C104.308 38.2435 104.326 38.2359 104.34 38.2224C104.353 38.2089 104.361 38.1906 104.361 38.1716L104.364 35.9861C104.365 35.8864 104.344 35.7876 104.302 35.6954C104.261 35.6032 104.201 35.5194 104.125 35.4487C104.049 35.3781 103.958 35.3221 103.858 35.2839C103.759 35.2456 103.652 35.2259 103.544 35.2259L97.4295 35.2151C97.2122 35.2151 97.0038 35.2947 96.85 35.4365C96.6963 35.5784 96.6096 35.7709 96.6092 35.9717L96.6056 38.1572C96.6056 38.1762 96.6131 38.1945 96.6266 38.208C96.64 38.2215 96.6582 38.2291 96.6772 38.2291Z" fill="#11295A"/>
<path d="M118.469 33.6981L120.072 33.6963C120.082 33.6965 120.093 33.6995 120.102 33.705C120.112 33.7105 120.119 33.7183 120.125 33.7277C120.13 33.7372 120.133 33.7478 120.133 33.7587C120.133 33.7695 120.131 33.7802 120.125 33.7897L114.358 44.2694C114.353 44.2793 114.345 44.2876 114.335 44.2933C114.325 44.299 114.314 44.3019 114.303 44.3018L112.649 44.3C112.638 44.3001 112.627 44.2972 112.617 44.2915C112.607 44.2858 112.599 44.2775 112.594 44.2676L106.843 33.7897C106.838 33.7802 106.835 33.7695 106.835 33.7587C106.835 33.7478 106.838 33.7372 106.843 33.7277C106.849 33.7183 106.857 33.7105 106.866 33.705C106.875 33.6995 106.886 33.6965 106.897 33.6963L108.501 33.6981C108.513 33.698 108.524 33.7009 108.534 33.7066C108.543 33.7123 108.551 33.7205 108.557 33.7304L113.43 42.7184C113.436 42.7286 113.444 42.7371 113.453 42.743C113.463 42.749 113.474 42.7521 113.486 42.7521C113.497 42.7521 113.509 42.749 113.518 42.743C113.528 42.7371 113.536 42.7286 113.541 42.7184L118.413 33.7304C118.418 33.7205 118.427 33.7123 118.436 33.7066C118.446 33.7009 118.457 33.698 118.469 33.6981Z" fill="#11295A"/>
<path d="M41.4249 44.3018C39.149 44.303 36.9437 44.3018 34.8087 44.2982C33.2684 44.2964 32.3049 43.3762 32.3066 41.8809C32.3114 39.1311 32.3126 36.4371 32.3102 33.7987C32.3102 33.7835 32.3163 33.7688 32.327 33.7581C32.3378 33.7473 32.3523 33.7412 32.3675 33.7412L33.761 33.7448C33.7724 33.7448 33.7833 33.7493 33.7914 33.7574C33.7994 33.7655 33.804 33.7765 33.804 33.7879V42.1217C33.804 42.2947 33.8725 42.4607 33.9944 42.583C34.1163 42.7054 34.2817 42.7741 34.4541 42.7741H40.8768C40.9648 42.7741 41.0519 42.7567 41.1331 42.7229C41.2144 42.6892 41.2882 42.6397 41.3504 42.5772C41.4126 42.5148 41.462 42.4407 41.4957 42.3592C41.5293 42.2776 41.5466 42.1902 41.5466 42.1019L41.5484 33.7897C41.5484 33.7586 41.564 33.743 41.595 33.743H42.9866C43.0105 33.743 43.0225 33.755 43.0225 33.779C43.038 37.9713 43.0404 42.1199 43.0296 46.2248C43.026 47.1288 42.4726 48.0562 41.6434 48.3366C41.315 48.4468 40.8451 48.4995 40.2338 48.4947C38.1168 48.4767 36.1431 48.4725 34.3126 48.4821C34.2732 48.4833 34.2535 48.4642 34.2535 48.4246L34.2553 46.9976C34.2553 46.9677 34.2696 46.9527 34.2983 46.9527H41.0541C41.1081 46.9526 41.16 46.9321 41.1992 46.8952C41.4511 46.6675 41.5675 46.3848 41.5484 46.0469C41.5198 45.5149 41.5502 44.9613 41.5502 44.4276C41.5502 44.3437 41.5084 44.3018 41.4249 44.3018Z" fill="#11295A"/>
</svg>
