<svg width="70" height="70" viewBox="0 0 70 70" fill="none" xmlns="http://www.w3.org/2000/svg">
<path fill-rule="evenodd" clip-rule="evenodd" d="M5.69855 12.3582C5.91181 11.6335 7.09798 10.4004 7.79345 10.1803C8.14699 10.0685 15.9424 10.0192 34.9394 10.0089C37.2741 10.0076 39.4119 10.0058 41.3699 10.0042C61.1543 9.98762 62.5703 9.98644 63.1808 10.6899C63.2279 10.7441 63.2701 10.8025 63.3157 10.8655C63.3741 10.9462 63.438 11.0344 63.5242 11.1307C63.8612 11.507 64.2126 12.0688 64.3053 12.3793C64.4317 12.8029 64.4738 17.6 64.4738 31.6058V50.2679L64.1259 50.617C63.6658 51.0791 63.0145 51.0791 62.5544 50.617L62.2065 50.2679V31.6184V12.9689L61.8587 12.6198L61.5109 12.2706H35H8.48906L8.14133 12.6198L7.79345 12.9689V31.6184V50.2679L7.44558 50.617C6.98547 51.0791 6.33422 51.0791 5.87411 50.617L5.52624 50.2679V31.6058C5.52624 17.3693 5.56705 12.8049 5.69855 12.3582ZM1.03999 54.9129C0.95894 54.0411 0.977502 53.9554 1.32028 53.6111L1.68742 53.2425H14.5951H27.5028L27.8505 53.5917C28.3107 54.0537 28.3107 54.7075 27.8505 55.1694L27.5028 55.5187H15.5225C4.74617 55.5187 3.54243 55.541 3.54243 55.7413C3.54243 56.1289 4.9797 57.4338 5.61353 57.6219C6.46146 57.8734 63.5385 57.8734 64.3865 57.6219C65.0203 57.4338 66.4576 56.1289 66.4576 55.7413C66.4576 55.541 65.2538 55.5187 54.4775 55.5187H42.4972L42.1495 55.1694C41.6893 54.7075 41.6893 54.0537 42.1495 53.5917L42.4972 53.2425H55.4049H68.3126L68.6797 53.6111C69.0225 53.9554 69.0411 54.0411 68.96 54.9129C68.7769 56.8803 67.6007 58.5613 65.7717 59.4686L64.701 60H35H5.29895L4.22826 59.4686C2.39933 58.5613 1.22307 56.8803 1.03999 54.9129Z" fill="#11295A"/>
<path d="M37.7061 21.6244C37.4851 21.8071 36.4818 24.6556 33.9353 32.3286C32.027 38.079 30.4656 42.9314 30.4656 43.1116C30.4656 43.9224 31.6464 44.4241 32.2939 43.8886C32.5148 43.706 33.5182 40.8574 36.0647 33.1844C37.973 27.434 39.5344 22.5817 39.5344 22.4014C39.5344 21.5907 38.3536 21.0889 37.7061 21.6244Z" fill="#0C5AE9"/>
<path d="M19.5923 27.8466C16.9438 30.1687 14.748 32.2013 14.674 32.399C14.5903 32.6229 14.5903 32.8901 14.674 33.114C14.748 33.3118 16.9438 35.3443 19.5923 37.6665C23.6051 41.1848 24.4461 41.8614 24.8062 41.8614C25.3876 41.8614 25.9312 41.304 25.9312 40.7079C25.9312 40.6396 25.934 40.5828 25.9288 40.5267C25.8932 40.1414 25.478 39.7915 21.1487 35.9913C19.181 34.2638 17.5708 32.8082 17.5708 32.7565C17.5708 32.7049 19.209 31.2272 21.2112 29.4731C25.462 25.749 25.8874 25.3877 25.9275 24.9875C25.9332 24.9308 25.9312 24.8732 25.9312 24.8053C25.9312 24.209 25.3877 23.6517 24.8062 23.6517C24.4461 23.6517 23.6051 24.3283 19.5923 27.8466Z" fill="#0C5AE9"/>
<path d="M44.4167 24.0009C43.9378 24.4816 43.9545 25.1261 44.4585 25.6213C44.6728 25.8318 46.554 27.4992 48.6387 29.3265C50.7234 31.1538 52.4292 32.6973 52.4292 32.7565C52.4292 32.8157 50.7234 34.3593 48.6387 36.1865C46.554 38.0139 44.6728 39.6812 44.4585 39.8917C43.9545 40.387 43.9378 41.0314 44.4167 41.5121C45.1595 42.2579 45.2016 42.2309 50.4077 37.6665C53.0392 35.3591 55.2493 33.3196 55.319 33.1339C55.3886 32.9483 55.4066 32.6406 55.359 32.4499C55.283 32.1462 52.4451 29.5688 46.7287 24.6119C45.4731 23.5232 45.0134 23.4017 44.4167 24.0009Z" fill="#0C5AE9"/>
</svg>
