<svg width="70" height="70" viewBox="0 0 70 70" fill="none" xmlns="http://www.w3.org/2000/svg">
<path fill-rule="evenodd" clip-rule="evenodd" d="M6.28017 2.51219C5.60915 2.72369 4.46468 3.90877 4.25892 4.60522C4.02567 5.3949 4.02567 14.5846 4.25892 15.3743C4.48081 16.1253 5.61339 17.2579 6.36438 17.4797C6.78862 17.6051 10.0773 17.646 19.7286 17.646H32.5302V19.8335V22.021H23.0221H13.5138L13.1783 22.3566C12.7342 22.8006 12.7342 23.4289 13.1783 23.8729L13.5138 24.2085H37.9989H62.484L62.8195 24.5441L63.1552 24.8797V29.6772V34.4748L62.8195 34.8104L62.484 35.146H34.7177H6.95132L6.61581 34.8104L6.28017 34.4748V29.6772V24.8797L6.61581 24.5441C6.93177 24.2282 7.04005 24.2085 8.46767 24.2085C9.89528 24.2085 10.0036 24.1888 10.3195 23.8729C10.7636 23.4289 10.7636 22.8006 10.3195 22.3566C10.0033 22.0403 9.8961 22.021 8.4555 22.021C7.61495 22.021 6.67392 22.0958 6.36438 22.1872C5.61339 22.4091 4.48081 23.5417 4.25892 24.2927C4.02567 25.0824 4.02567 34.2721 4.25892 35.0618C4.48081 35.8128 5.61339 36.9454 6.36438 37.1672C6.78862 37.2926 10.0773 37.3335 19.7286 37.3335H32.5302V39.521V41.7085H23.0221H13.5138L13.1783 42.0441C12.7342 42.4881 12.7342 43.1164 13.1783 43.5604L13.5138 43.896H37.9989H62.484L62.8195 44.2316L63.1552 44.5672V49.3647V54.1623L62.8195 54.4979L62.484 54.8335H34.7177H6.95132L6.61581 54.4979L6.28017 54.1623V49.3647V44.5672L6.61581 44.2316C6.93177 43.9157 7.04005 43.896 8.46767 43.896C9.89528 43.896 10.0036 43.8763 10.3195 43.5604C10.7636 43.1164 10.7636 42.4881 10.3195 42.0441C10.0033 41.7278 9.8961 41.7085 8.4555 41.7085C7.61495 41.7085 6.67392 41.7833 6.36438 41.8748C5.61339 42.0966 4.48081 43.2292 4.25892 43.9802C4.02567 44.7699 4.02567 53.9596 4.25892 54.7493C4.48081 55.5003 5.61339 56.6329 6.36438 56.8547C6.78862 56.9801 10.0773 57.021 19.7286 57.021H32.5302V59.3452C32.5302 61.3631 32.502 61.6694 32.3162 61.6694C32.1985 61.6694 31.7678 62.0038 31.3592 62.4125C30.9505 62.8212 30.6161 63.2518 30.6161 63.3695C30.6161 63.5619 29.5307 63.5835 19.8775 63.5835H9.13882L8.80331 63.9191C8.59167 64.1306 8.46767 64.4109 8.46767 64.6772C8.46767 64.9436 8.59167 65.2239 8.80331 65.4354L9.13882 65.771H19.8775C29.5307 65.771 30.6161 65.7926 30.6161 65.985C30.6161 66.3574 32.0028 67.6115 32.6144 67.7923C33.9072 68.1742 34.915 67.9054 35.914 66.9125C36.3087 66.5201 36.6317 66.1027 36.6317 65.985C36.6317 65.7925 37.8185 65.771 48.4641 65.771H60.2965L60.632 65.4354C60.8437 65.2239 60.9677 64.9436 60.9677 64.6772C60.9677 64.4109 60.8437 64.1306 60.632 63.9191L60.2965 63.5835H48.4641C38.4463 63.5835 36.6317 63.5544 36.6317 63.3932C36.6317 63.0979 35.4138 61.8145 35.0461 61.7222L34.7177 61.6398V59.3305V57.021H48.6129C59.1231 57.021 62.6453 56.9805 63.0709 56.8547C63.8219 56.6329 64.9545 55.5003 65.1764 54.7493C65.4097 53.9596 65.4097 44.7699 65.1764 43.9802C64.9545 43.2292 63.8219 42.0966 63.0709 41.8748C62.6453 41.749 59.1231 41.7085 48.6129 41.7085H34.7177V39.521V37.3335H48.6129C59.1231 37.3335 62.6453 37.293 63.0709 37.1672C63.8219 36.9454 64.9545 35.8128 65.1764 35.0618C65.4097 34.2721 65.4097 25.0824 65.1764 24.2927C64.9545 23.5417 63.8219 22.4091 63.0709 22.1872C62.6453 22.0615 59.1231 22.021 48.6129 22.021H34.7177V19.8335V17.646H48.6129C59.1231 17.646 62.6453 17.6055 63.0709 17.4797C63.8219 17.2579 64.9545 16.1253 65.1764 15.3743C65.4097 14.5846 65.4097 5.3949 65.1764 4.60522C64.9545 3.85422 63.8219 2.72164 63.0709 2.49975C62.6382 2.37191 56.8451 2.3335 38.0111 2.3335H13.5138L13.1783 2.66914C12.9667 2.88064 12.8427 3.16092 12.8427 3.42725C12.8427 3.69357 12.9667 3.97385 13.1783 4.18535L13.5138 4.521H37.9989H62.484L62.8195 4.85664L63.1552 5.19215V9.98975V14.7873L62.8195 15.1229L62.484 15.4585H34.7177H6.95132L6.61581 15.1229L6.28017 14.7873V9.98975V5.19215L6.61581 4.85664C6.93177 4.54068 7.04005 4.521 8.46767 4.521C9.89528 4.521 10.0036 4.50131 10.3195 4.18535C10.7636 3.74143 10.7636 3.11307 10.3195 2.66914C9.99933 2.34881 9.91032 2.33418 8.37128 2.34744C7.48438 2.3551 6.54335 2.42934 6.28017 2.51219ZM4.42831 63.9191C3.75005 64.5973 4.23062 65.771 5.18642 65.771C5.74847 65.771 6.28017 65.2393 6.28017 64.6772C6.28017 64.1152 5.74847 63.5835 5.18642 63.5835C4.92009 63.5835 4.63981 63.7075 4.42831 63.9191ZM34.382 63.9191C35.0603 64.5973 34.5797 65.771 33.6239 65.771C33.0619 65.771 32.5302 65.2393 32.5302 64.6772C32.5302 64.1152 33.0619 63.5835 33.6239 63.5835C33.8902 63.5835 34.1705 63.7075 34.382 63.9191ZM63.4908 63.9191C63.2792 64.1306 63.1552 64.4109 63.1552 64.6772C63.1552 64.9436 63.2792 65.2239 63.4908 65.4354C63.7023 65.647 63.9826 65.771 64.2489 65.771C64.5152 65.771 64.7955 65.647 65.007 65.4354C65.2187 65.2239 65.3427 64.9436 65.3427 64.6772C65.3427 64.4109 65.2187 64.1306 65.007 63.9191C64.7955 63.7075 64.5152 63.5835 64.2489 63.5835C63.9826 63.5835 63.7023 63.7075 63.4908 63.9191Z" fill="#11295A"/>
<path d="M48.9351 30.771C47.9793 30.771 47.4987 29.5973 48.1769 28.9191C48.3885 28.7075 48.6687 28.5835 48.9351 28.5835C49.4971 28.5835 50.0288 29.1152 50.0288 29.6772C50.0288 30.2393 49.4971 30.771 48.9351 30.771Z" fill="#0C5AE9"/>
<path d="M53.3101 30.771C52.3543 30.771 51.8737 29.5973 52.5519 28.9191C52.7635 28.7075 53.0437 28.5835 53.3101 28.5835C53.8721 28.5835 54.4038 29.1152 54.4038 29.6772C54.4038 30.2393 53.8721 30.771 53.3101 30.771Z" fill="#0C5AE9"/>
<path d="M57.6851 30.771C56.7293 30.771 56.2487 29.5973 56.9269 28.9191C57.1384 28.7075 57.4187 28.5835 57.6851 28.5835C58.2471 28.5835 58.7788 29.1152 58.7788 29.6772C58.7788 30.2393 58.2471 30.771 57.6851 30.771Z" fill="#0C5AE9"/>
<path d="M48.9351 11.0835C47.9793 11.0835 47.4987 9.90977 48.1769 9.23164C48.3885 9.02 48.6687 8.896 48.9351 8.896C49.4971 8.896 50.0288 9.4277 50.0288 9.98975C50.0288 10.5518 49.4971 11.0835 48.9351 11.0835Z" fill="#0C5AE9"/>
<path d="M53.3101 11.0835C52.3543 11.0835 51.8737 9.90977 52.5519 9.23164C52.7635 9.02 53.0437 8.896 53.3101 8.896C53.8721 8.896 54.4038 9.4277 54.4038 9.98975C54.4038 10.5518 53.8721 11.0835 53.3101 11.0835Z" fill="#0C5AE9"/>
<path d="M57.6851 11.0835C56.7293 11.0835 56.2487 9.90977 56.9269 9.23164C57.1384 9.02 57.4187 8.896 57.6851 8.896C58.2471 8.896 58.7788 9.4277 58.7788 9.98975C58.7788 10.5518 58.2471 11.0835 57.6851 11.0835Z" fill="#0C5AE9"/>
<path d="M47.8418 49.3647C47.8418 49.0984 47.9658 48.8181 48.1774 48.6066C48.3889 48.395 48.6692 48.271 48.9355 48.271C49.2019 48.271 49.4821 48.395 49.6937 48.6066C49.9053 48.8181 50.0293 49.0984 50.0293 49.3647C50.0293 49.6311 49.9053 49.9114 49.6937 50.1229C49.4821 50.3345 49.2019 50.4585 48.9355 50.4585C48.6692 50.4585 48.3889 50.3345 48.1774 50.1229C47.9658 49.9114 47.8418 49.6311 47.8418 49.3647Z" fill="#0C5AE9"/>
<path d="M52.2168 49.3647C52.2168 49.0984 52.3408 48.8181 52.5524 48.6066C52.7639 48.395 53.0442 48.271 53.3105 48.271C53.5769 48.271 53.8571 48.395 54.0687 48.6066C54.2803 48.8181 54.4043 49.0984 54.4043 49.3647C54.4043 49.6311 54.2803 49.9114 54.0687 50.1229C53.8571 50.3345 53.5769 50.4585 53.3105 50.4585C53.0442 50.4585 52.7639 50.3345 52.5524 50.1229C52.3408 49.9114 52.2168 49.6311 52.2168 49.3647Z" fill="#0C5AE9"/>
<path d="M56.5918 49.3647C56.5918 49.0984 56.7158 48.8181 56.9274 48.6066C57.1389 48.395 57.4192 48.271 57.6856 48.271C57.9519 48.271 58.2322 48.395 58.4437 48.6066C58.6553 48.8181 58.7793 49.0984 58.7793 49.3647C58.7793 49.6311 58.6553 49.9114 58.4437 50.1229C58.2322 50.3345 57.9519 50.4585 57.6856 50.4585C57.4192 50.4585 57.1389 50.3345 56.9274 50.1229C56.7158 49.9114 56.5918 49.6311 56.5918 49.3647Z" fill="#0C5AE9"/>
<path fill-rule="evenodd" clip-rule="evenodd" d="M12.8427 46.262C12.5795 46.345 12.0545 46.7233 11.6759 47.1026C10.7097 48.071 10.4429 49.0927 10.8214 50.3741C11.0433 51.1251 12.1759 52.2577 12.9269 52.4796C14.2088 52.8583 15.2308 52.5913 16.197 51.6251C17.533 50.2891 17.5729 48.5895 16.3015 47.1755C15.4167 46.1914 14.1384 45.8537 12.8427 46.262ZM13.9364 50.4583C14.8922 50.4583 15.3728 49.2846 14.6946 48.6065C14.483 48.3948 14.2028 48.2708 13.9364 48.2708C13.3744 48.2708 12.8427 48.8025 12.8427 49.3646C12.8427 49.9266 13.3744 50.4583 13.9364 50.4583Z" fill="#0C5AE9"/>
<path fill-rule="evenodd" clip-rule="evenodd" d="M12.8428 26.5745C12.1717 26.786 11.0273 27.9711 10.8215 28.6676C10.4428 29.9494 10.7098 30.9714 11.676 31.9376C13.0592 33.3208 14.8138 33.3208 16.197 31.9376C17.533 30.6016 17.573 28.902 16.3016 27.488C15.4168 26.5039 14.1384 26.1662 12.8428 26.5745ZM15.0303 29.6771C15.0303 29.4108 14.9063 29.1305 14.6946 28.919C14.4831 28.7073 14.2028 28.5833 13.9365 28.5833C13.6702 28.5833 13.3899 28.7073 13.1784 28.919C12.9668 29.1305 12.8428 29.4108 12.8428 29.6771C12.8428 29.9434 12.9668 30.2237 13.1784 30.4352C13.3899 30.6468 13.6702 30.7708 13.9365 30.7708C14.2028 30.7708 14.4831 30.6468 14.6946 30.4352C14.9063 30.2237 15.0303 29.9434 15.0303 29.6771Z" fill="#0C5AE9"/>
<path fill-rule="evenodd" clip-rule="evenodd" d="M12.8428 6.88704C12.1717 7.09854 11.0273 8.28362 10.8215 8.98007C10.4428 10.2619 10.7098 11.2839 11.676 12.2501C13.0592 13.6333 14.8138 13.6333 16.197 12.2501C17.533 10.9141 17.573 9.21454 16.3016 7.80046C15.4168 6.81635 14.1384 6.47866 12.8428 6.88704ZM15.0303 9.9896C15.0303 9.72327 14.9063 9.443 14.6946 9.23149C14.4831 9.01985 14.2028 8.89585 13.9365 8.89585C13.6702 8.89585 13.3899 9.01985 13.1784 9.23149C12.9668 9.443 12.8428 9.72327 12.8428 9.9896C12.8428 10.2559 12.9668 10.5362 13.1784 10.7477C13.3899 10.9593 13.6702 11.0833 13.9365 11.0833C14.2028 11.0833 14.4831 10.9593 14.6946 10.7477C14.9063 10.5362 15.0303 10.2559 15.0303 9.9896Z" fill="#0C5AE9"/>
<path d="M23.7793 29.6772C23.7793 29.4109 23.9033 29.1306 24.1149 28.9191L24.4504 28.5835H33.623H42.7956L43.1312 28.9191C43.5752 29.3631 43.5752 29.9914 43.1312 30.4354L42.7956 30.771H33.623H24.4504L24.1149 30.4354C23.9033 30.2238 23.7793 29.9436 23.7793 29.6772Z" fill="#0C5AE9"/>
<path d="M23.7793 9.98975C23.7793 9.72342 23.9033 9.44314 24.1149 9.23164L24.4504 8.896H33.623H42.7956L43.1312 9.23164C43.5752 9.67557 43.5752 10.3039 43.1312 10.7479L42.7956 11.0835H33.623H24.4504L24.1149 10.7479C23.9033 10.5363 23.7793 10.2561 23.7793 9.98975Z" fill="#0C5AE9"/>
<path d="M23.7793 49.3647C23.7793 49.0984 23.9033 48.8181 24.1149 48.6066L24.4504 48.271H33.623H42.7956L43.1312 48.6066C43.5752 49.0506 43.5752 49.6789 43.1312 50.1229L42.7956 50.4585H33.623H24.4504L24.1149 50.1229C23.9033 49.9114 23.7793 49.6311 23.7793 49.3647Z" fill="#0C5AE9"/>
</svg>
