<svg width="70" height="70" viewBox="0 0 70 70" fill="none" xmlns="http://www.w3.org/2000/svg">
<path d="M27.387 8.40201C27.2232 8.48117 27.0245 8.70771 26.9457 8.9054C26.8666 9.1031 26.5579 11.2868 26.2595 13.7581C25.9609 16.2293 25.6876 18.2803 25.652 18.3159C25.6165 18.3514 23.4938 17.9715 20.9351 17.4714C17.328 16.7665 16.2213 16.5951 16.0094 16.7085C15.6554 16.898 15.3119 17.3922 15.3119 17.7119C15.3119 17.8502 16.3024 19.7454 17.5132 21.9235C18.7238 24.1014 19.7429 25.9925 19.7778 26.1257C19.8301 26.3262 19.1166 26.7032 15.6282 28.3174C13.3111 29.3896 11.3078 30.3932 11.1761 30.5476C10.6519 31.1627 11.1479 32.3019 11.9401 32.3019C12.3725 32.3019 21.8456 27.9003 22.2492 27.5119C22.4201 27.3473 22.5564 27.0532 22.5545 26.853C22.5525 26.6474 21.6976 24.9576 20.5733 22.9367C19.4856 20.9816 18.6546 19.3622 18.7268 19.3379C18.7989 19.3137 20.6262 19.6406 22.7875 20.0645C26.9733 20.8854 27.1167 20.8909 27.5277 20.2428C27.6525 20.0459 27.8887 18.5517 28.1608 16.2375C28.3997 14.2072 28.6381 12.4024 28.6907 12.2269C28.777 11.9389 29.0597 12.2025 31.5789 14.9193C33.1282 16.5901 34.5111 17.9659 34.6853 18.0096C34.8581 18.053 35.1413 18.0528 35.3148 18.0092C35.491 17.9649 36.86 16.6012 38.4201 14.9156C40.9495 12.1826 41.2191 11.9311 41.3069 12.2236C41.3602 12.4009 41.599 14.2072 41.8379 16.2375C42.11 18.5517 42.3462 20.0459 42.471 20.2428C42.8824 20.8914 43.0257 20.8862 47.22 20.0675C49.3852 19.6449 51.2121 19.3178 51.28 19.3406C51.3476 19.3634 50.5131 20.9816 49.4254 22.9367C48.3011 24.9576 47.4462 26.6474 47.4442 26.853C47.4423 27.054 47.5773 27.3443 47.7484 27.5064C48.1573 27.8943 57.634 32.3019 58.0589 32.3019C58.8171 32.3019 59.3237 31.2327 58.8714 30.5869C58.766 30.4364 56.7806 29.4341 54.428 28.3438C52.0889 27.2598 50.1751 26.3134 50.1751 26.2409C50.1751 26.1683 51.1903 24.2742 52.431 22.0318C53.6717 19.7892 54.6868 17.8433 54.6868 17.7074C54.6868 17.3917 54.3414 16.8969 53.9893 16.7085C53.7774 16.5951 52.6707 16.7665 49.0636 17.4714C46.5049 17.9715 44.3822 18.3514 44.3467 18.3159C44.3111 18.2803 44.0378 16.2293 43.7392 13.7581C43.4408 11.2868 43.1311 9.10091 43.0511 8.90062C42.8439 8.38177 42.2074 8.14074 41.7027 8.38998C41.4895 8.49511 39.9151 10.0886 38.2038 11.9309C36.4926 13.7731 35.0506 15.2805 34.9994 15.2805C34.9481 15.2805 33.5049 13.7731 31.7922 11.9309C30.0795 10.0886 28.547 8.50646 28.3867 8.41513C28.0342 8.21457 27.7817 8.21115 27.387 8.40201Z" fill="#0C5AE9"/>
<path fill-rule="evenodd" clip-rule="evenodd" d="M13.6391 34.7395C14.6719 34.2755 15.8553 33.784 16.2689 33.6471C16.9448 33.4236 17.4493 33.4032 21.2591 33.4453C25.7462 33.495 26.3503 33.57 27.6643 34.2403C28.541 34.6877 29.5343 35.7121 29.9606 36.6086C30.1752 37.0598 30.3508 37.5059 30.3508 37.5998C30.3509 37.6939 30.5129 37.7707 30.711 37.7707C31.4844 37.7707 32.2002 38.1069 32.8849 38.7914C34.0735 39.9801 34.2444 41.5484 33.3285 42.8635C33.0705 43.2338 33.0705 43.245 33.3285 43.6154C34.1975 44.8633 34.0746 46.4068 33.0116 47.5942C32.4573 48.2133 32.4472 48.242 32.6169 48.7082C33.0246 49.8285 32.7697 51.0176 31.9178 51.9692C31.3636 52.5883 31.3535 52.617 31.5231 53.0832C31.9594 54.2819 31.6685 55.4651 30.6974 56.4403L30.6708 56.467C30.4652 56.6736 30.3013 56.8383 30.1138 56.969C29.3784 57.4816 28.2791 57.4722 22.8685 57.4261L22.6915 57.4246C16.6302 57.373 16.607 57.3718 15.4486 57.0225C13.8908 56.5528 13.1862 56.2605 11.1173 55.2263C9.00119 54.1685 8.74935 54.0784 8.74935 54.379C8.74935 54.5003 8.59828 54.7505 8.41371 54.9351C8.08094 55.268 8.05701 55.2707 5.46811 55.2707C2.8792 55.2707 2.85527 55.268 2.5225 54.9351C2.07844 54.4911 2.07844 53.8628 2.5225 53.4188C2.8457 53.0955 2.92596 53.0832 4.71 53.0832H6.56185V45.4269V37.7707H4.71C2.92596 37.7707 2.8457 37.7584 2.5225 37.4351C2.07844 36.9911 2.07844 36.3628 2.5225 35.9188C2.85527 35.5859 2.8792 35.5832 5.46811 35.5832C8.05701 35.5832 8.08094 35.5859 8.41371 35.9188L8.74935 36.2543V44.1066V51.959L9.26205 52.0511C9.5441 52.1017 10.6976 52.598 11.8255 53.1537C16.0821 55.2514 16.1864 55.2707 23.3103 55.2707H28.8595L29.195 54.9351C29.8732 54.2569 29.3927 53.0832 28.4369 53.0832C27.4811 53.0832 27.0005 51.9095 27.6787 51.2313C27.9719 50.9381 28.1368 50.8957 28.9837 50.8957C29.8307 50.8957 29.9956 50.8533 30.2887 50.5601C30.967 49.8819 30.4864 48.7082 29.5306 48.7082C28.5748 48.7082 28.0942 47.5345 28.7725 46.8563C29.0656 46.5631 29.2305 46.5207 30.0775 46.5207C30.9244 46.5207 31.0893 46.4783 31.3825 46.1851C31.5941 45.9735 31.7181 45.6933 31.7181 45.4269C31.7181 45.1606 31.5941 44.8803 31.3825 44.6688C31.0893 44.3756 30.9244 44.3332 30.0775 44.3332C29.2305 44.3332 29.0656 44.2908 28.7725 43.9976C28.3284 43.5536 28.3284 42.9253 28.7725 42.4813C29.0656 42.1881 29.2305 42.1457 30.0775 42.1457C30.9244 42.1457 31.0893 42.1033 31.3825 41.8101C31.5941 41.5985 31.7181 41.3183 31.7181 41.0519C31.7181 40.7856 31.5941 40.5053 31.3825 40.2938L31.0469 39.9582H26.2494H21.4518L21.1162 39.6226C20.9046 39.411 20.7806 39.1308 20.7806 38.8644C20.7806 38.5981 20.9046 38.3178 21.1162 38.1063L21.4518 37.7707H24.7393C27.1349 37.7707 28.0267 37.7278 28.0267 37.6126C28.0267 37.2636 27.3045 36.5416 26.6264 36.2129C25.5232 35.6781 24.3264 35.5617 20.4177 35.6089L16.8841 35.6516L14.9017 36.5506C12.2477 37.7542 12.096 37.8099 11.7626 37.7041C11.3253 37.5652 10.9369 37.0786 10.9369 36.6696C10.9369 36.2993 11.3954 35.5832 11.6323 35.5832C11.7033 35.5832 12.6062 35.2035 13.6391 34.7395ZM41.0724 34.9243C41.7393 34.3095 42.793 33.7292 43.5779 33.5442C43.8602 33.4776 46.0316 33.417 48.4033 33.4094C51.7779 33.3987 52.8819 33.439 53.4817 33.5953C54.572 33.8793 58.5371 35.6743 58.8226 36.013C59.1418 36.392 59.1253 36.9675 58.7846 37.3331C58.257 37.8995 57.9714 37.8578 55.8182 36.9005C55.6277 36.8158 55.4505 36.7365 55.2846 36.6623C54.2446 36.1971 53.6509 35.9315 53.0294 35.7802C52.2025 35.5789 51.3264 35.58 49.2848 35.5826C49.0402 35.5829 48.7789 35.5832 48.499 35.5832C45.6775 35.5832 44.2206 35.6352 43.8336 35.7494C43.4791 35.8542 43.0163 36.1704 42.5826 36.6039C41.6529 37.5338 41.5618 37.9118 41.5618 40.8456V43.2736L42.0062 43.1865C42.5276 43.0844 43.0063 42.7559 43.3991 42.2301C43.6396 41.9082 43.691 41.5914 43.7493 40.0728L43.757 39.8688C43.7944 38.8677 43.814 38.3438 44.0856 38.0699C44.3839 37.7691 44.986 37.7696 46.2492 37.7706L46.4837 37.7707C46.5867 37.7707 46.6856 37.7706 46.7807 37.7704C47.982 37.7687 48.5698 37.7679 48.8684 38.0614C49.1545 38.3426 49.1749 38.8943 49.2149 39.9746C49.2182 40.0639 49.2216 40.1568 49.2253 40.2535C49.2985 42.1503 49.3158 42.2421 49.7609 43.0755C50.4848 44.4318 51.6658 45.2216 53.2111 45.3831C54.2149 45.4881 54.6868 45.8519 54.6868 46.5207C54.6868 47.1597 54.1614 47.6144 53.423 47.6144C52.6836 47.6144 51.4384 47.2963 50.6967 46.918C50.1527 46.6405 50.1281 46.6392 49.9978 46.8831C49.7082 47.4251 48.5829 48.3769 48.0392 48.5399C47.6542 48.6553 46.3084 48.7082 43.7615 48.7082H40.0455L39.71 49.0438C39.4983 49.2553 39.3743 49.5356 39.3743 49.8019C39.3743 50.0683 39.4983 50.3485 39.71 50.5601L40.0455 50.8957H43.2025H46.3594L46.695 50.5601C46.9066 50.3485 47.0306 50.0683 47.0306 49.8019C47.0306 48.8461 48.2043 48.3656 48.8825 49.0438C49.535 49.6963 49.2329 51.0268 48.1974 52.0624C47.2571 53.0027 46.9073 53.0832 43.7615 53.0832C41.1598 53.0832 41.1367 53.0858 40.8037 53.4188C40.4371 53.7854 40.3862 54.1212 40.6199 54.634C40.8639 55.1694 41.2983 55.2707 43.3519 55.2707C45.2016 55.2707 45.2769 55.2595 45.6012 54.9351C45.8128 54.7235 45.9368 54.4433 45.9368 54.1769C45.9368 53.2211 47.1106 52.7406 47.7887 53.4188C48.4407 54.0707 48.1392 55.4003 47.1036 56.4403C46.1589 57.389 45.7371 57.4875 42.8451 57.4334C40.5218 57.39 40.5113 57.3883 39.8451 56.9761C38.5647 56.1837 37.9645 54.5306 38.4566 53.1516L38.6516 52.6047L38.0818 51.9692C37.2291 51.0183 36.9738 49.829 37.3818 48.7082C37.5515 48.242 37.5414 48.2133 36.9871 47.5942C35.9241 46.4068 35.8012 44.8633 36.6702 43.6154C36.9282 43.245 36.9282 43.2338 36.6702 42.8635C35.7543 41.5484 35.9252 39.9801 37.1138 38.7914C37.7777 38.1277 38.5138 37.7707 39.2193 37.7707C39.3798 37.7707 39.5111 37.6866 39.5111 37.5839C39.5111 37.146 40.5121 35.4407 41.0724 34.9243ZM61.2493 36.2543L61.585 35.9188C61.9178 35.5859 61.9417 35.5832 64.5306 35.5832C67.1195 35.5832 67.1434 35.5859 67.4762 35.9188C67.6878 36.1303 67.8118 36.4106 67.8118 36.6769C67.8118 36.9433 67.6878 37.2235 67.4762 37.4351C67.153 37.7584 67.0727 37.7707 65.2887 37.7707H63.4368V45.4269V53.0832H65.2887C67.0727 53.0832 67.153 53.0955 67.4762 53.4188C67.6878 53.6303 67.8118 53.9106 67.8118 54.1769C67.8118 54.4433 67.6878 54.7235 67.4762 54.9351C67.1434 55.268 67.1195 55.2707 64.5306 55.2707C61.9417 55.2707 61.9178 55.268 61.585 54.9351C61.4004 54.7505 61.2493 54.5044 61.2493 54.3882C61.2493 54.272 61.2024 54.1769 61.1452 54.1769C61.0877 54.1769 60.1496 54.6135 59.0602 55.147C55.448 56.9158 54.1844 57.3036 51.6577 57.418C49.9312 57.4963 49.9267 57.4957 49.5727 57.1417C49.1094 56.6783 49.1017 56.0582 49.5537 55.6063C49.8579 55.3021 49.999 55.2707 51.0634 55.2707C53.2732 55.2707 55.1691 54.6925 58.4902 53.0059C59.4224 52.5325 60.4245 52.1048 60.7171 52.0553L61.2493 51.9654V44.1099V36.2543ZM39.1631 42.1457C39.3361 42.1457 39.3743 41.9473 39.3743 41.0519C39.3743 40.1566 39.3361 39.9582 39.1631 39.9582C38.7949 39.9582 38.2806 40.5957 38.2806 41.0519C38.2806 41.5082 38.7949 42.1457 39.1631 42.1457ZM47.84 44.1512C47.3233 43.1972 47.0306 42.0166 47.0306 40.8865V39.9582H46.503H45.9754L45.9039 41.1051C45.8444 42.0575 45.7561 42.3952 45.3833 43.0947C44.5746 44.6118 43.4125 45.2945 41.4634 45.3973C40.0586 45.4714 39.5883 45.3039 39.43 44.6732C39.3831 44.4862 39.2564 44.3332 39.1482 44.3332C38.7929 44.3332 38.2806 44.9789 38.2806 45.4269C38.2806 45.6933 38.4046 45.9735 38.6162 46.1851L38.9518 46.5207H43.1811H43.3496C46.7353 46.5208 47.6157 46.5208 47.9209 46.1019C48.0282 45.9547 48.0645 45.7557 48.1135 45.4869L48.1204 45.449C48.2117 44.9491 48.1716 44.7634 47.84 44.1512Z" fill="#11295A"/>
<path d="M61.585 59.9813C61.3733 60.1928 61.2493 60.4731 61.2493 60.7394C61.2493 61.0058 61.3733 61.286 61.585 61.4976C61.7965 61.7092 62.0768 61.8332 62.3431 61.8332C62.6094 61.8332 62.8897 61.7092 63.1012 61.4976C63.3128 61.286 63.4368 61.0058 63.4368 60.7394C63.4368 60.4731 63.3128 60.1928 63.1012 59.9813C62.8897 59.7697 62.6094 59.6457 62.3431 59.6457C62.0768 59.6457 61.7965 59.7697 61.585 59.9813Z" fill="#0C5AE9"/>
<path d="M57.21 59.9813C56.9983 60.1928 56.8743 60.4731 56.8743 60.7394C56.8743 61.0058 56.9983 61.286 57.21 61.4976C57.4215 61.7092 57.7018 61.8332 57.9681 61.8332C58.2344 61.8332 58.5147 61.7092 58.7262 61.4976C58.9378 61.286 59.0618 61.0058 59.0618 60.7394C59.0618 60.4731 58.9378 60.1928 58.7262 59.9813C58.5147 59.7697 58.2344 59.6457 57.9681 59.6457C57.7018 59.6457 57.4215 59.7697 57.21 59.9813Z" fill="#0C5AE9"/>
<path d="M52.835 59.9813C52.6233 60.1928 52.4993 60.4731 52.4993 60.7394C52.4993 61.0058 52.6233 61.286 52.835 61.4976C53.0465 61.7092 53.3268 61.8332 53.5931 61.8332C53.8594 61.8332 54.1397 61.7092 54.3512 61.4976C54.5628 61.286 54.6868 61.0058 54.6868 60.7394C54.6868 60.4731 54.5628 60.1928 54.3512 59.9813C54.1397 59.7697 53.8594 59.6457 53.5931 59.6457C53.3268 59.6457 53.0465 59.7697 52.835 59.9813Z" fill="#0C5AE9"/>
<path d="M15.6475 59.9813C14.9692 60.6595 15.4498 61.8332 16.4056 61.8332C16.9677 61.8332 17.4994 61.3015 17.4994 60.7394C17.4994 60.1774 16.9677 59.6457 16.4056 59.6457C16.1393 59.6457 15.859 59.7697 15.6475 59.9813Z" fill="#0C5AE9"/>
<path d="M11.2725 59.9813C10.5942 60.6595 11.0748 61.8332 12.0306 61.8332C12.5927 61.8332 13.1244 61.3015 13.1244 60.7394C13.1244 60.1774 12.5927 59.6457 12.0306 59.6457C11.7643 59.6457 11.484 59.7697 11.2725 59.9813Z" fill="#0C5AE9"/>
<path d="M6.8975 59.9813C6.21924 60.6595 6.6998 61.8332 7.6556 61.8332C8.21766 61.8332 8.74935 61.3015 8.74935 60.7394C8.74935 60.1774 8.21766 59.6457 7.6556 59.6457C7.38928 59.6457 7.109 59.7697 6.8975 59.9813Z" fill="#0C5AE9"/>
</svg>
