<svg width="61" height="61" viewBox="0 0 61 61" fill="none" xmlns="http://www.w3.org/2000/svg">
<path d="M60.3572 30.1786C60.3572 36.1474 58.5873 41.9821 55.2712 46.9449C51.9551 51.9078 47.2419 55.7759 41.7275 58.06C36.2131 60.3441 30.1451 60.9418 24.291 59.7773C18.437 58.6129 13.0597 55.7387 8.8391 51.5181C4.61855 47.2975 1.74434 41.9202 0.579896 36.0662C-0.584553 30.2121 0.0130515 24.1442 2.2972 18.6298C4.58135 13.1153 8.44944 8.40208 13.4123 5.08602C18.3751 1.76995 24.2098 8.12418e-08 30.1786 8.12418e-08C34.1418 -0.000290721 38.0662 0.780107 41.7278 2.29662C45.3894 3.81313 48.7164 6.03604 51.5188 8.83844C54.3212 11.6408 56.5441 14.9678 58.0606 18.6294C59.5771 22.291 60.3575 26.2154 60.3572 30.1786Z" fill="url(#paint0_linear_143_1911)"/>
<defs>
<linearGradient id="paint0_linear_143_1911" x1="7.93053" y1="7.98862" x2="44.7572" y2="54.5965" gradientUnits="userSpaceOnUse">
<stop stop-color="#0D6EFD"/>
<stop offset="1" stop-color="#1E285F" stop-opacity="0"/>
</linearGradient>
</defs>
</svg>
