<svg width="56" height="56" viewBox="0 0 56 56" fill="none" xmlns="http://www.w3.org/2000/svg">
<path d="M19.4744 55.8615C21.0096 56.3268 22.4544 55.5898 22.9021 54.1002C23.3499 52.6106 22.5526 51.1938 21.0175 50.7284C19.4823 50.263 18.0476 51.0032 17.5998 52.4928C17.1521 53.9824 17.9393 55.3961 19.4744 55.8615ZM19.7538 54.9688C18.8246 54.6871 18.3699 53.7805 18.6603 52.8143C18.9538 51.838 19.8291 51.3456 20.7583 51.6272C21.6773 51.9059 22.1352 52.8024 21.8417 53.7787C21.5512 54.7449 20.6729 55.2474 19.7538 54.9688Z" fill="#2A91FF"/>
<path d="M8.70382 49.6335L9.54491 50.3027L11.429 47.9146C11.931 47.2783 12.661 47.1866 13.2712 47.6721C13.8814 48.1576 13.9513 48.8857 13.4493 49.5219L11.5652 51.9101L12.4063 52.5793L14.2904 50.1911C15.1118 49.1499 14.9221 47.8423 13.8171 46.9631C12.7204 46.0906 11.4093 46.2042 10.5879 47.2454L8.70382 49.6335Z" fill="#2A91FF"/>
<path d="M8.93502 41.7701L6.37268 43.4947C5.72553 43.9302 5.12163 43.766 4.67774 43.1008L3.92565 43.607C4.75503 44.8497 5.84613 45.1553 6.89556 44.449L9.53661 42.6715L8.93502 41.7701Z" fill="#2A91FF"/>
<path d="M3.03848 27.7314L3.07757 28.8128C3.84292 28.9426 4.41472 29.563 4.44394 30.3714C4.47886 31.3372 3.7759 32.0567 2.75247 32.094C1.73958 32.1309 0.975975 31.4649 0.941058 30.4991C0.912214 29.7012 1.44788 29.0299 2.19168 28.8556L2.15221 27.7637C0.860143 27.9685 -0.0488248 29.1265 0.00203185 30.5333C0.05972 32.1291 1.23079 33.2533 2.79232 33.1964C4.35384 33.1394 5.44066 31.9329 5.38297 30.3371C5.33211 28.9303 4.35248 27.8412 3.03848 27.7314Z" fill="#2A91FF"/>
<path d="M6.1144 23.3796L3.13839 22.5394C2.38677 22.3272 2.11813 21.76 2.33343 20.9909L1.45993 20.7443C1.05764 22.1813 1.53633 23.2119 2.75517 23.556L5.8226 24.4219L6.1144 23.3796Z" fill="#2A91FF"/>
<path d="M8.25227 13.5273C6.93809 12.667 5.36769 13.0006 4.48802 14.3362C3.60834 15.6717 3.90552 17.2711 5.20513 18.1344C6.50473 18.9976 8.08671 18.6464 8.96638 17.3109C9.66665 16.2477 9.5894 14.8702 8.7943 13.9884L8.19242 14.9022C8.60054 15.4133 8.63967 16.1971 8.23456 16.8121C7.74263 17.559 6.87172 17.7889 6.07643 17.4248L8.50712 13.7345C8.43088 13.6586 8.34008 13.5856 8.25227 13.5273ZM5.23142 14.8173C5.70019 14.1056 6.51842 13.8408 7.25783 14.1172L5.40009 16.9377C4.86324 16.3537 4.76843 15.5203 5.23142 14.8173Z" fill="#2A91FF"/>
<path d="M11.6551 6.90804C10.3332 7.81335 10.0176 9.39394 10.8925 10.6822C11.7673 11.9705 13.2782 12.3003 14.4784 11.4784C15.1307 11.0317 15.5274 10.3775 15.5974 9.73013L15.9994 10.322L16.8865 9.71454L15.4324 7.57321C14.5576 6.28493 12.9771 6.00273 11.6551 6.90804ZM14.1524 10.5667C13.3609 11.1087 12.379 10.9012 11.8057 10.0568C11.2382 9.2212 11.3985 8.21879 12.1899 7.67679C12.99 7.12885 13.9778 7.34507 14.5453 8.18071C15.1187 9.02506 14.9525 10.0188 14.1524 10.5667Z" fill="#2A91FF"/>
<path d="M21.7023 2.57157L20.5723 2.88074L20.2228 1.59267L19.1743 1.87956L19.5238 3.16763L18.5974 3.4211L18.834 4.29334L19.7604 4.03987L20.8776 8.15765L21.9262 7.87076L20.809 3.75298L21.9389 3.44381L21.7023 2.57157Z" fill="#2A91FF"/>
<path d="M27.3061 0.615133C27.2977 0.23703 27.0072 -0.00869456 26.6061 0.00023553C26.1944 0.00940062 25.9255 0.26758 25.9339 0.645683C25.942 1.01328 26.2222 1.26974 26.6339 1.26058C27.035 1.25165 27.3142 0.982733 27.3061 0.615133ZM26.1125 2.03927L26.2266 7.20668L27.3032 7.18271L27.1891 2.0153L26.1125 2.03927Z" fill="#2A91FF"/>
<path d="M35.9341 3.36252L33.3715 6.92154L32.9614 2.54946L31.8518 2.24596L32.4725 7.77604L33.7145 8.11575L37.0438 3.66603L35.9341 3.36252Z" fill="#2A91FF"/>
<path d="M44.1733 11.0434C45.0883 9.76992 44.8257 8.17961 43.5348 7.23094C42.2439 6.28228 40.6381 6.49952 39.7208 7.75825C38.8036 9.01697 39.0831 10.6198 40.374 11.5684C41.4016 12.3236 42.7768 12.3156 43.6901 11.5633L42.8069 10.9142C42.2799 11.2974 41.4976 11.2972 40.9031 10.8603C40.1812 10.3298 39.9909 9.44555 40.3888 8.66701L43.9557 11.2883C44.0347 11.2158 44.1113 11.1284 44.1733 11.0434ZM43.0227 7.95159C43.7106 8.45713 43.9381 9.29032 43.63 10.0173L40.9038 8.01385C41.5092 7.50533 42.3433 7.4523 43.0227 7.95159Z" fill="#2A91FF"/>
<path d="M53.1744 20.2303C52.7722 19.0904 51.9128 18.526 51.028 18.8409C49.8749 19.2512 50.0654 20.4888 50.2148 21.2612C50.3113 21.8516 50.4031 22.3656 49.8961 22.5461C49.4885 22.6911 49.0767 22.3802 48.8774 21.8152C48.664 21.2106 48.8183 20.6648 49.2785 20.4787L48.9288 19.4875C48.0276 19.8193 47.6951 20.8748 48.1113 22.0543C48.524 23.224 49.4243 23.8408 50.3091 23.526C51.4821 23.1085 51.2572 21.8051 51.1416 21.0653C51.0516 20.4614 50.9737 19.987 51.4807 19.8066C51.8486 19.6757 52.2399 19.9604 52.4218 20.4758C52.6212 21.0408 52.4593 21.5335 52.0289 21.709L52.3647 22.6606C53.2395 22.3493 53.5661 21.3405 53.1744 20.2303Z" fill="#2A91FF"/>
<path d="M54.7082 29.8943L54.6603 28.7291L56 28.6736L55.9555 27.5924L54.6158 27.648L54.5765 26.6928L53.6693 26.7304L53.7086 27.6856L49.4258 27.8633L49.4703 28.9445L53.7531 28.7668L53.801 29.9319L54.7082 29.8943Z" fill="#2A91FF"/>
<path d="M53.0151 39.124L53.3103 38.0935L50.3801 37.247C49.5994 37.0214 49.2342 36.3799 49.4484 35.6323C49.6626 34.8847 50.3085 34.5462 51.0892 34.7718L54.0194 35.6183L54.3146 34.5878L51.3844 33.7413C50.1069 33.3722 48.9715 34.0396 48.5837 35.3934C48.1988 36.7371 48.8074 37.9084 50.0849 38.2775L53.0151 39.124Z" fill="#2A91FF"/>
<path d="M49.6381 48.8318L47.4247 47.0779C48.0665 47.0627 48.711 46.7542 49.1792 46.1583C50.1221 44.9583 49.9082 43.4056 48.7106 42.4566C47.4635 41.4684 45.871 41.6703 44.8825 42.9283C43.8941 44.1862 44.069 45.7886 45.2913 46.7572L48.9748 49.676L49.6381 48.8318ZM45.6111 43.519C46.2029 42.7659 47.2019 42.6712 48.003 43.306C48.7959 43.9343 48.9449 44.9386 48.3531 45.6917C47.7548 46.4531 46.7475 46.5413 45.9546 45.913C45.1535 45.2782 45.0128 44.2804 45.6111 43.519Z" fill="#2A91FF"/>
<path d="M42.9423 53.7246C43.1532 54.0392 43.5296 54.0896 43.8615 53.8653C44.2021 53.635 44.2885 53.2718 44.0777 52.9572C43.8726 52.6513 43.4991 52.5862 43.1585 52.8165C42.8266 53.0408 42.7373 53.4187 42.9423 53.7246ZM43.1763 51.8774L40.2942 47.5773L39.4034 48.1794L42.2855 52.4795L43.1763 51.8774Z" fill="#2A91FF"/>
<path d="M35.3314 55.8433C36.8665 55.3779 37.6638 53.9611 37.2161 52.4715C36.7683 50.9819 35.3235 50.2448 33.7884 50.7102C32.2532 51.1756 31.466 52.5893 31.9138 54.0789C32.3616 55.5685 33.7962 56.3086 35.3314 55.8433ZM35.0722 54.9444C34.1431 55.2261 33.2647 54.7237 32.9742 53.7574C32.6808 52.7811 33.1386 51.8846 34.0677 51.6029C34.9868 51.3243 35.8621 51.8167 36.1556 52.793C36.4461 53.7592 35.9913 54.6658 35.0722 54.9444Z" fill="#2A91FF"/>
<path d="M31.1333 27.9241C32.0791 28.5472 32.0791 29.9287 31.1333 30.5519L26.8819 33.3529C25.8291 34.0466 24.4239 33.2954 24.4239 32.039V26.4369C24.4239 25.1806 25.8291 24.4294 26.8819 25.123L31.1333 27.9241Z" fill="#0C5AE9"/>
</svg>
