<svg width="27" height="27" viewBox="0 0 27 27" fill="none" xmlns="http://www.w3.org/2000/svg">
<rect width="27" height="27" rx="8" fill="#11295A"/>
<path fill-rule="evenodd" clip-rule="evenodd" d="M18.9 8.0125C17.5875 6.7 15.8375 6 14 6C10.15 6 7 9.15 7 13C7 14.225 7.35001 15.45 7.96251 16.5L7 20L10.675 19.0375C11.725 19.5625 12.8625 19.9125 14 19.9125C17.85 19.9125 21 16.7625 21 12.9125C21 11.075 20.2125 9.325 18.9 8.0125ZM14 18.775C12.95 18.775 11.9 18.5125 11.025 17.9875L10.85 17.9L8.66249 18.5125L9.27501 16.4125L9.09999 16.15C8.48749 15.1875 8.22499 14.1375 8.22499 13.0875C8.22499 9.9375 10.85 7.3125 14 7.3125C15.575 7.3125 16.975 7.925 18.1125 8.975C19.25 10.1125 19.775 11.5125 19.775 13.0875C19.775 16.15 17.2375 18.775 14 18.775ZM17.15 14.4C16.975 14.3125 16.1 13.875 15.925 13.875C15.75 13.7875 15.6625 13.7875 15.575 13.9625C15.4875 14.1375 15.1375 14.4875 15.05 14.6625C14.9625 14.75 14.875 14.75 14.7 14.75C14.525 14.6625 14 14.4875 13.3 13.875C12.775 13.4375 12.425 12.825 12.3375 12.65C12.25 12.475 12.3375 12.3875 12.425 12.3C12.5125 12.2125 12.6 12.125 12.6875 12.0375C12.775 11.95 12.775 11.8625 12.8625 11.775C12.95 11.6875 12.8625 11.6 12.8625 11.5125C12.8625 11.425 12.5125 10.55 12.3375 10.2C12.25 9.9375 12.075 9.9375 11.9875 9.9375C11.9 9.9375 11.8125 9.9375 11.6375 9.9375C11.55 9.9375 11.375 9.9375 11.2 10.1125C11.025 10.2875 10.5875 10.725 10.5875 11.6C10.5875 12.475 11.2 13.2625 11.2875 13.4375C11.375 13.525 12.5125 15.3625 14.2625 16.0625C15.75 16.675 16.0125 16.5 16.3625 16.5C16.7125 16.5 17.4125 16.0625 17.5 15.7125C17.675 15.275 17.675 14.925 17.5875 14.925C17.5 14.4875 17.325 14.4875 17.15 14.4Z" fill="#EEF8FF"/>
</svg>
